<svg width="15" height="11" viewBox="0 0 15 11" fill="none" xmlns="http://www.w3.org/2000/svg">
<path d="M0.00270002 1.6956L7.2 5.2938L14.3973 1.6956C14.3707 1.237 14.1697 0.805939 13.8355 0.490704C13.5014 0.175469 13.0594 -8.42262e-05 12.6 3.0315e-08H1.8C1.34063 -8.42262e-05 0.898602 0.175469 0.56446 0.490704C0.230317 0.805939 0.0293437 1.237 0.00270002 1.6956Z" fill="#CBD5E1"/>
<path d="M14.4 3.7062L7.2 7.3062L0 3.7062V9C0 9.47739 0.189642 9.93523 0.527208 10.2728C0.864773 10.6104 1.32261 10.8 1.8 10.8H12.6C13.0774 10.8 13.5352 10.6104 13.8728 10.2728C14.2104 9.93523 14.4 9.47739 14.4 9V3.7062Z" fill="#CBD5E1"/>
</svg>
