<svg width="15" height="15" viewBox="0 0 15 15" fill="none" xmlns="http://www.w3.org/2000/svg">
<path d="M0.468629 0.468629C0.168571 0.768687 0 1.17565 0 1.6V2.4C0 9.0272 5.3728 14.4 12 14.4H12.8C13.2243 14.4 13.6313 14.2314 13.9314 13.9314C14.2314 13.6313 14.4 13.2243 14.4 12.8V10.1768C14.4 10.0088 14.3472 9.84511 14.249 9.70884C14.1508 9.57257 14.0122 9.47068 13.8528 9.4176L10.2584 8.2192C10.0757 8.15848 9.87729 8.16566 9.69948 8.23943C9.52168 8.31319 9.37644 8.4486 9.2904 8.6208L8.3864 10.4264C6.42757 9.54135 4.85866 7.97243 3.9736 6.0136L5.7792 5.1096C5.9514 5.02356 6.08681 4.87832 6.16057 4.70052C6.23434 4.52271 6.24152 4.32427 6.1808 4.1416L4.9824 0.5472C4.92936 0.387965 4.82759 0.249443 4.69148 0.15124C4.55538 0.053037 4.39184 0.000127435 4.224 0H1.6C1.17565 0 0.768687 0.168571 0.468629 0.468629Z" fill="#1A89F9"/>
</svg>
