<svg width="14" height="14" viewBox="0 0 14 14" fill="none" xmlns="http://www.w3.org/2000/svg">
<path fill-rule="evenodd" clip-rule="evenodd" d="M6.65349 10.9195L3.03882 13.2448C2.63349 13.5048 2.12282 13.1341 2.23482 12.6648L3.29082 8.23414L0.197491 5.70081C-0.174509 5.39547 0.010824 4.78747 0.488157 4.74614L4.51216 4.39681L6.16682 0.332804C6.20636 0.234413 6.27447 0.150122 6.36236 0.0908032C6.45026 0.0314841 6.5539 -0.000143002 6.65994 4.86084e-07C6.76598 0.000143974 6.86954 0.0320515 6.95728 0.0916082C7.04501 0.151165 7.11289 0.23564 7.15216 0.334138L8.79349 4.39681L12.8468 4.74614C13.3242 4.78747 13.5082 5.39681 13.1348 5.70214L10.0282 8.23547L11.0842 12.6675C11.1962 13.1368 10.6842 13.5075 10.2802 13.2475L6.65349 10.9195Z" fill="#FFCC00"/>
</svg>
