<svg width="40" height="40" viewBox="0 0 40 40" fill="none" xmlns="http://www.w3.org/2000/svg">
<path d="M17.2474 29.4317L13.5704 33.1088C11.7289 34.9502 8.73273 34.9508 6.89039 33.1088C5.04927 31.2674 5.04988 28.2712 6.89131 26.4297L14.2744 19.0466C15.9806 17.3404 18.679 17.2144 20.5305 18.6704C20.677 18.7854 20.8183 18.9108 20.9535 19.046C21.7735 19.8657 23.0448 19.8792 23.8477 19.0759L26.1616 16.7621C25.7813 16.185 25.3419 15.6467 24.8472 15.152C24.1499 14.455 23.3765 13.8791 22.5526 13.4259C19.3287 11.6477 15.3416 11.7365 12.1931 13.6921C11.5391 14.0982 10.9205 14.585 10.3529 15.1529L2.99728 22.5086C-0.99899 26.5048 -0.99899 33.0069 2.99666 37.0028C6.99323 40.9991 13.495 40.9991 17.4916 37.0028L24.1087 30.3857C21.7973 30.6915 19.4181 30.3741 17.2474 29.4317Z" fill="url(#paint0_linear_106_1919)"/>
<path d="M37.0026 2.99689C33.0066 -0.999066 26.5049 -0.999066 22.5083 2.9975L15.8918 9.614C18.2032 9.30791 20.5824 9.62529 22.7531 10.568L26.4304 6.89062C28.2719 5.04919 31.2675 5.04919 33.1089 6.89062C34.9509 8.73265 34.9509 11.7283 33.1095 13.5697L25.7255 20.9537C24.0382 22.641 21.3603 22.7576 19.5109 21.3086C19.3595 21.1911 19.2149 21.0626 19.076 20.9238C18.2698 20.1175 16.9584 20.1181 16.1521 20.9244L13.8383 23.2382C14.2189 23.8141 14.6589 24.353 15.1527 24.8468C15.8549 25.549 16.6349 26.1276 17.4647 26.5832C20.7063 28.3627 24.7135 28.2587 27.8641 26.2723C28.4971 25.8734 29.0961 25.3983 29.6467 24.8474L37.0026 17.4918C40.9989 13.4952 40.9989 6.99346 37.0026 2.99689Z" fill="url(#paint1_linear_106_1919)"/>
<defs>
<linearGradient id="paint0_linear_106_1919" x1="0" y1="0" x2="40" y2="39.9998" gradientUnits="userSpaceOnUse">
<stop stop-color="white"/>
<stop offset="1" stop-color="white" stop-opacity="0.5"/>
</linearGradient>
<linearGradient id="paint1_linear_106_1919" x1="0" y1="0" x2="40" y2="39.9998" gradientUnits="userSpaceOnUse">
<stop stop-color="white"/>
<stop offset="1" stop-color="white" stop-opacity="0.5"/>
</linearGradient>
</defs>
</svg>
