<svg width="40" height="38" viewBox="0 0 40 38" fill="none" xmlns="http://www.w3.org/2000/svg">
<path d="M0 25.7605V29.9059C0 30.5531 0.524687 31.0778 1.17188 31.0778H38.8281C39.4753 31.0778 40 30.5531 40 29.9059V25.7605H0Z" fill="url(#paint0_linear_106_1210)"/>
<path d="M40 23.4168V1.17187C40 0.524687 39.4753 0 38.8281 0H1.17188C0.524687 0 0 0.524687 0 1.17187V23.4168H40ZM21.5162 13.3772C21.5162 14.4373 21.1131 15.9042 19.193 16.8712C18.5845 17.1777 17.9138 17.3331 17.1996 17.3331H17.1932C16.3636 17.332 15.5995 17.112 14.9223 16.6793C13.6362 15.8577 12.9841 14.7489 12.9841 13.3836V7.25555C12.9841 6.60836 13.5088 6.08367 14.156 6.08367C14.8032 6.08367 15.3279 6.60836 15.3279 7.25555V13.3836C15.3279 13.8479 15.4734 14.2502 16.1841 14.7041C16.4837 14.8955 16.8147 14.9888 17.1963 14.9893H17.1998C17.5492 14.9893 17.8563 14.9202 18.1387 14.778C19.055 14.3165 19.1724 13.7869 19.1724 13.3771V7.25547C19.1724 6.60828 19.6971 6.08359 20.3443 6.08359C20.9915 6.08359 21.5162 6.60828 21.5162 7.25547V13.3772ZM27.0159 16.1612C27.0159 16.8084 26.4912 17.3331 25.844 17.3331C25.1968 17.3331 24.6721 16.8084 24.6721 16.1612V7.25555C24.6721 6.60836 25.1968 6.08367 25.844 6.08367C26.4912 6.08367 27.0159 6.60836 27.0159 7.25555V16.1612Z" fill="url(#paint1_linear_106_1210)"/>
<path d="M15.4383 33.4216V35.5206H15.1007C14.4535 35.5206 13.9288 36.0453 13.9288 36.6925C13.9288 37.3397 14.4535 37.8644 15.1007 37.8644H24.8993C25.5465 37.8644 26.0712 37.3397 26.0712 36.6925C26.0712 36.0453 25.5465 35.5206 24.8993 35.5206H24.5617V33.4216H15.4383Z" fill="url(#paint2_linear_106_1210)"/>
<defs>
<linearGradient id="paint0_linear_106_1210" x1="0" y1="0" x2="37.8074" y2="39.9399" gradientUnits="userSpaceOnUse">
<stop stop-color="white"/>
<stop offset="1" stop-color="white" stop-opacity="0.5"/>
</linearGradient>
<linearGradient id="paint1_linear_106_1210" x1="0" y1="0" x2="37.8074" y2="39.9399" gradientUnits="userSpaceOnUse">
<stop stop-color="white"/>
<stop offset="1" stop-color="white" stop-opacity="0.5"/>
</linearGradient>
<linearGradient id="paint2_linear_106_1210" x1="0" y1="0" x2="37.8074" y2="39.9399" gradientUnits="userSpaceOnUse">
<stop stop-color="white"/>
<stop offset="1" stop-color="white" stop-opacity="0.5"/>
</linearGradient>
</defs>
</svg>
