<svg width="40" height="40" viewBox="0 0 40 40" fill="none" xmlns="http://www.w3.org/2000/svg">
<path d="M36.4844 16.4844C34.9586 16.4844 33.67 17.467 33.1846 18.8281H28.0847C27.8841 17.4452 27.349 16.1809 26.5469 15.1102L30.1114 11.5457C31.6171 12.2556 33.1107 11.8606 34.0865 10.8848C35.4575 9.51383 35.4575 7.28453 34.0865 5.91352C32.7155 4.5425 30.4862 4.5425 29.1152 5.91352C28.0378 6.99086 27.8386 8.5843 28.4543 9.88859L24.8898 13.4531C23.8191 12.651 22.5548 12.1159 21.1719 11.9153V6.81539C22.533 6.33 23.5156 5.04141 23.5156 3.51562C23.5156 1.57703 21.9386 0 20 0C18.0614 0 16.4844 1.57703 16.4844 3.51562C16.4844 5.04141 17.467 6.33 18.8281 6.81539V11.9153C17.4452 12.1159 16.1809 12.651 15.1102 13.4531L11.5457 9.88859C12.1614 8.58422 11.9621 6.99078 10.8848 5.91352C9.51383 4.5425 7.28453 4.5425 5.91352 5.91352C4.5425 7.28453 4.5425 9.51383 5.91352 10.8848C6.8893 11.8606 8.38297 12.2556 9.88859 11.5457L13.4531 15.1102C12.651 16.1809 12.1159 17.4452 11.9153 18.8281H6.81539C6.33 17.467 5.04141 16.4844 3.51562 16.4844C1.57703 16.4844 0 18.0614 0 20C0 21.9386 1.57703 23.5156 3.51562 23.5156C5.04141 23.5156 6.33 22.533 6.81539 21.1719H11.9153C12.1159 22.5548 12.651 23.8191 13.4531 24.8898L9.88859 28.4543C8.58422 27.8387 6.99062 28.038 5.91352 29.1152C4.5425 30.4862 4.5425 32.7155 5.91352 34.0865C7.28453 35.4575 9.51375 35.4575 10.8848 34.0865C11.962 33.0093 12.1613 31.4157 11.5457 30.1114L15.1102 26.5469C16.1809 27.349 17.4452 27.8841 18.8281 28.0847V33.1846C17.467 33.67 16.4844 34.9586 16.4844 36.4844C16.4844 38.423 18.0614 40 20 40C21.9386 40 23.5156 38.423 23.5156 36.4844C23.5156 34.9586 22.533 33.67 21.1719 33.1846V28.0847C22.5548 27.8841 23.8191 27.349 24.8898 26.5469L28.4543 30.1114C27.8387 31.4158 28.038 33.0094 29.1152 34.0865C30.4862 35.4575 32.7154 35.4575 34.0865 34.0865C35.4575 32.7155 35.4575 30.4862 34.0865 29.1152C33.0091 28.0378 31.4157 27.8386 30.1114 28.4543L26.5469 24.8898C27.349 23.8191 27.8841 22.5548 28.0847 21.1719H33.1846C33.67 22.533 34.9586 23.5156 36.4844 23.5156C38.423 23.5156 40 21.9386 40 20C40 18.0614 38.423 16.4844 36.4844 16.4844Z" fill="url(#paint0_linear_106_78)"/>
<defs>
<linearGradient id="paint0_linear_106_78" x1="0" y1="0" x2="40" y2="40" gradientUnits="userSpaceOnUse">
<stop stop-color="white"/>
<stop offset="1" stop-color="white" stop-opacity="0.5"/>
</linearGradient>
</defs>
</svg>
