<svg width="40" height="40" viewBox="0 0 40 40" fill="none" xmlns="http://www.w3.org/2000/svg">
<path d="M40 9.45312V4.29657C40 1.92749 38.0725 0 35.7034 0H4.29657C1.92749 0 5.96046e-07 1.92749 5.96046e-07 4.29657V9.45312H40ZM34.0625 4.76562C34.7098 4.76562 35.2344 5.29022 35.2344 5.9375C35.2344 6.58478 34.7098 7.10938 34.0625 7.10938C33.4152 7.10938 32.8906 6.58478 32.8906 5.9375C32.8906 5.29022 33.4152 4.76562 34.0625 4.76562ZM29.375 4.76562C30.0223 4.76562 30.5469 5.29022 30.5469 5.9375C30.5469 6.58478 30.0223 7.10938 29.375 7.10938C28.7277 7.10938 28.2031 6.58478 28.2031 5.9375C28.2031 5.29022 28.7277 4.76562 29.375 4.76562ZM24.6875 4.76562C25.3348 4.76562 25.8594 5.29022 25.8594 5.9375C25.8594 6.58478 25.3348 7.10938 24.6875 7.10938C24.0402 7.10938 23.5156 6.58478 23.5156 5.9375C23.5156 5.29022 24.0402 4.76562 24.6875 4.76562Z" fill="url(#paint0_linear_106_107)"/>
<path d="M0 11.7969V35.7034C0 38.0725 1.92749 40 4.29657 40H35.7034C38.0725 40 40 38.0725 40 35.7034V11.7969H0ZM4.86725 15.3162C4.86725 14.6692 5.39185 14.1443 6.03912 14.1443H34.0585C34.7058 14.1443 35.2304 14.6692 35.2304 15.3162V24.6912C35.2304 25.3384 34.7058 25.863 34.0585 25.863H6.03912C5.39185 25.863 4.86725 25.3384 4.86725 24.6912V15.3162ZM35.1562 29.375C35.1562 30.0223 34.6317 30.5469 33.9844 30.5469H22.3438C21.6965 30.5469 21.1719 30.0223 21.1719 29.375C21.1719 28.7277 21.6965 28.2031 22.3438 28.2031H33.9844C34.6317 28.2031 35.1562 28.7277 35.1562 29.375ZM5.9375 28.2031H17.5781C18.2254 28.2031 18.75 28.7277 18.75 29.375C18.75 30.0223 18.2254 30.5469 17.5781 30.5469H5.9375C5.29022 30.5469 4.76562 30.0223 4.76562 29.375C4.76562 28.7277 5.29022 28.2031 5.9375 28.2031ZM17.6562 35.2344H5.9375C5.29022 35.2344 4.76562 34.7098 4.76562 34.0625C4.76562 33.4152 5.29022 32.8906 5.9375 32.8906H17.6562C18.3035 32.8906 18.8281 33.4152 18.8281 34.0625C18.8281 34.7098 18.3035 35.2344 17.6562 35.2344ZM34.0625 35.2344H22.3438C21.6965 35.2344 21.1719 34.7098 21.1719 34.0625C21.1719 33.4152 21.6965 32.8906 22.3438 32.8906H34.0625C34.7098 32.8906 35.2344 33.4152 35.2344 34.0625C35.2344 34.7098 34.7098 35.2344 34.0625 35.2344Z" fill="url(#paint1_linear_106_107)"/>
<path d="M7.211 16.488H32.8867V23.5193H7.211V16.488Z" fill="url(#paint2_linear_106_107)"/>
<defs>
<linearGradient id="paint0_linear_106_107" x1="0" y1="0" x2="40" y2="40" gradientUnits="userSpaceOnUse">
<stop stop-color="white"/>
<stop offset="1" stop-color="white" stop-opacity="0.5"/>
</linearGradient>
<linearGradient id="paint1_linear_106_107" x1="0" y1="0" x2="40" y2="40" gradientUnits="userSpaceOnUse">
<stop stop-color="white"/>
<stop offset="1" stop-color="white" stop-opacity="0.5"/>
</linearGradient>
<linearGradient id="paint2_linear_106_107" x1="0" y1="0" x2="40" y2="40" gradientUnits="userSpaceOnUse">
<stop stop-color="white"/>
<stop offset="1" stop-color="white" stop-opacity="0.5"/>
</linearGradient>
</defs>
</svg>
