<svg width="40" height="40" viewBox="0 0 40 40" fill="none" xmlns="http://www.w3.org/2000/svg">
<path d="M11.983 15.8115C11.7909 14.3777 10.5684 13.3039 9.11469 13.3039C7.62289 13.3039 6.39414 14.4122 6.23695 15.8896V17.6355C7.11773 17.9232 8.05734 18.0794 9.03289 18.0794C10.0655 18.0794 11.058 17.9046 11.983 17.5838V15.8115Z" fill="url(#paint0_linear_106_1278)"/>
<path d="M10.625 9.4475C10.625 8.61344 9.9475 7.93492 9.11469 7.93492C8.28187 7.93492 7.60437 8.61344 7.60437 9.4475C7.60437 10.2816 8.28187 10.9601 9.11469 10.9601C9.9475 10.9601 10.625 10.2816 10.625 9.4475Z" fill="url(#paint1_linear_106_1278)"/>
<path d="M40 9.03969C40 4.05516 35.9478 0 30.967 0C25.9862 0 21.9341 4.05516 21.9341 9.03969C21.9341 10.5913 22.3269 12.0529 23.018 13.3301L20.0216 16.3266L16.9968 13.3018C17.6785 12.0312 18.0659 10.5799 18.0659 9.03969C18.0659 4.05516 14.0138 0 9.03297 0C4.05219 0 0 4.05516 0 9.03969C0 12.1145 1.54242 14.8352 3.8932 16.469V15.8326C3.8932 15.7975 3.89477 15.7624 3.89797 15.7274C4.01492 14.429 4.60914 13.2266 5.57109 12.3418C5.74969 12.1775 5.93828 12.0271 6.13516 11.8905C5.58906 11.2249 5.2607 10.3739 5.2607 9.4475C5.2607 7.32109 6.98961 5.59117 9.11477 5.59117C11.2399 5.59117 12.9688 7.32109 12.9688 9.4475C12.9688 10.3736 12.6406 11.2243 12.0948 11.8898C13.3002 12.724 14.1435 14.0535 14.3193 15.6081C14.3242 15.6519 14.3267 15.6958 14.3267 15.7398V16.3595C14.7893 16.0235 15.2189 15.6448 15.6098 15.2292L18.8497 18.4691V21.9966C14.4205 22.5734 10.9887 26.3732 10.9887 30.9603C10.9887 33.9984 12.4941 36.6913 14.7977 38.3312V37.7034C14.7977 37.6714 14.7991 37.6394 14.8016 37.6074C14.9091 36.3 15.4995 35.0877 16.4638 34.194C16.6466 34.0245 16.8399 33.8695 17.042 33.7294C16.4959 33.0638 16.1676 32.2128 16.1676 31.2864C16.1676 29.16 17.8965 27.4301 20.0216 27.4301C22.1468 27.4301 23.8757 29.1601 23.8757 31.2864C23.8757 32.2127 23.5474 33.0638 23.0013 33.7294C23.2034 33.8695 23.3966 34.0245 23.5795 34.194C24.5438 35.0877 25.1341 36.3001 25.2416 37.6074C25.2442 37.6394 25.2455 37.6714 25.2455 37.7034V38.3312C27.5491 36.6914 29.0545 33.9985 29.0545 30.9603C29.0545 26.3732 25.6226 22.5734 21.1934 21.9966V18.4691L24.411 15.2516C24.8177 15.6812 25.2658 16.0712 25.7491 16.4146V15.7863C25.7491 15.7467 25.7511 15.7073 25.7552 15.6679C25.9159 14.0839 26.7627 12.7302 27.9842 11.8863C27.4402 11.2213 27.113 10.372 27.113 9.4475C27.113 7.32109 28.842 5.59117 30.9671 5.59117C33.0923 5.59117 34.8212 7.32109 34.8212 9.4475C34.8212 10.372 34.4941 11.2213 33.95 11.8863C35.1716 12.7302 36.0183 14.0839 36.1791 15.6679C36.183 15.7072 36.1851 15.7467 36.1851 15.7863V16.4146C38.4919 14.7752 40 12.0804 40 9.03969Z" fill="url(#paint2_linear_106_1278)"/>
<path d="M33.8413 15.8505C33.6665 14.3948 32.4403 13.3038 30.967 13.3038C29.4937 13.3038 28.2676 14.3948 28.0928 15.8505V17.61C28.9961 17.9141 29.9626 18.0793 30.967 18.0793C31.9715 18.0793 32.938 17.9142 33.8413 17.61V15.8505Z" fill="url(#paint3_linear_106_1278)"/>
<path d="M32.4773 9.4475C32.4773 8.61344 31.7998 7.93492 30.967 7.93492C30.1342 7.93492 29.4567 8.61344 29.4567 9.4475C29.4567 10.2816 30.1342 10.9601 30.967 10.9601C31.7998 10.9601 32.4773 10.2816 32.4773 9.4475Z" fill="url(#paint4_linear_106_1278)"/>
<path d="M22.9018 37.7556C22.7584 36.2869 21.5018 35.1427 20.0216 35.1427C18.5416 35.1427 17.285 36.2869 17.1415 37.7556V39.5287C18.0464 39.8342 19.015 40 20.0216 40C21.0283 40 21.9968 39.8342 22.9018 39.5287V37.7556Z" fill="url(#paint5_linear_106_1278)"/>
<path d="M21.532 31.2864C21.532 30.4523 20.8545 29.7738 20.0216 29.7738C19.1888 29.7738 18.5113 30.4524 18.5113 31.2864C18.5113 32.1204 19.1888 32.799 20.0216 32.799C20.8545 32.799 21.532 32.1205 21.532 31.2864Z" fill="url(#paint6_linear_106_1278)"/>
<defs>
<linearGradient id="paint0_linear_106_1278" x1="0" y1="0" x2="40" y2="40" gradientUnits="userSpaceOnUse">
<stop stop-color="white"/>
<stop offset="1" stop-color="white" stop-opacity="0.5"/>
</linearGradient>
<linearGradient id="paint1_linear_106_1278" x1="0" y1="0" x2="40" y2="40" gradientUnits="userSpaceOnUse">
<stop stop-color="white"/>
<stop offset="1" stop-color="white" stop-opacity="0.5"/>
</linearGradient>
<linearGradient id="paint2_linear_106_1278" x1="0" y1="0" x2="40" y2="40" gradientUnits="userSpaceOnUse">
<stop stop-color="white"/>
<stop offset="1" stop-color="white" stop-opacity="0.5"/>
</linearGradient>
<linearGradient id="paint3_linear_106_1278" x1="0" y1="0" x2="40" y2="40" gradientUnits="userSpaceOnUse">
<stop stop-color="white"/>
<stop offset="1" stop-color="white" stop-opacity="0.5"/>
</linearGradient>
<linearGradient id="paint4_linear_106_1278" x1="0" y1="0" x2="40" y2="40" gradientUnits="userSpaceOnUse">
<stop stop-color="white"/>
<stop offset="1" stop-color="white" stop-opacity="0.5"/>
</linearGradient>
<linearGradient id="paint5_linear_106_1278" x1="0" y1="0" x2="40" y2="40" gradientUnits="userSpaceOnUse">
<stop stop-color="white"/>
<stop offset="1" stop-color="white" stop-opacity="0.5"/>
</linearGradient>
<linearGradient id="paint6_linear_106_1278" x1="0" y1="0" x2="40" y2="40" gradientUnits="userSpaceOnUse">
<stop stop-color="white"/>
<stop offset="1" stop-color="white" stop-opacity="0.5"/>
</linearGradient>
</defs>
</svg>
