<svg width="40" height="31" viewBox="0 0 40 31" fill="none" xmlns="http://www.w3.org/2000/svg">
<path d="M26.0191 23.0377C25.9226 22.7408 25.6658 22.5244 25.3568 22.4795L22.1636 22.0155L20.7356 19.122C20.5973 18.842 20.3123 18.6647 20 18.6647C19.6877 18.6647 19.4027 18.842 19.2644 19.122L17.8364 22.0155L14.6432 22.4795C14.3342 22.5244 14.0775 22.7408 13.9809 23.0377C13.8845 23.3347 13.9649 23.6607 14.1885 23.8787L16.4991 26.1309L15.9537 29.3112C15.9009 29.619 16.0273 29.9301 16.28 30.1136C16.5327 30.2971 16.8676 30.3214 17.1439 30.176L20 28.6745L22.8562 30.176C22.9762 30.2391 23.1073 30.2702 23.2378 30.2702C23.4079 30.2702 23.5772 30.2174 23.7201 30.1136C23.9727 29.9301 24.0992 29.619 24.0464 29.3112L23.5009 26.1309L25.8116 23.8787C26.0352 23.6607 26.1156 23.3348 26.0191 23.0377Z" fill="url(#paint0_linear_106_176)"/>
<path d="M12.753 23.0379C12.6562 22.7409 12.3995 22.5245 12.0905 22.4795L8.89734 22.0155L7.46938 19.122C7.33109 18.842 7.04602 18.6648 6.73375 18.6648C6.42148 18.6648 6.13641 18.842 5.99813 19.122L4.57016 22.0155L1.37695 22.4795C1.06797 22.5245 0.81125 22.7409 0.714687 23.0378C0.618281 23.3348 0.698672 23.6608 0.922266 23.8787L3.23289 26.1311L2.6875 29.3114C2.63469 29.6191 2.76117 29.9302 3.01383 30.1138C3.26633 30.2973 3.60133 30.3214 3.87773 30.1762L6.73383 28.6746L9.59 30.1762C9.71 30.2393 9.84109 30.2704 9.97164 30.2704C10.1417 30.2704 10.311 30.2176 10.4539 30.1138C10.7065 29.9302 10.833 29.6191 10.7802 29.3114L10.2348 26.1311L12.5454 23.8788C12.769 23.6609 12.8495 23.3349 12.753 23.0379Z" fill="url(#paint1_linear_106_176)"/>
<path d="M39.2855 23.0377C39.1888 22.7409 38.9321 22.5245 38.6231 22.4795L35.4299 22.0155L34.002 19.122C33.8637 18.842 33.5786 18.6648 33.2663 18.6648C32.9541 18.6648 32.669 18.842 32.5307 19.122L31.1027 22.0155L27.9095 22.4795C27.6005 22.5245 27.3438 22.7409 27.2473 23.0378C27.1509 23.3348 27.2312 23.6608 27.4548 23.8787L29.7655 26.131L29.22 29.3113C29.1672 29.6191 29.2937 29.9302 29.5463 30.1137C29.6892 30.2175 29.8584 30.2703 30.0286 30.2703C30.1591 30.2703 30.2902 30.2392 30.4102 30.1761L33.2664 28.6745L36.1225 30.1761C36.3988 30.3213 36.7337 30.2973 36.9864 30.1137C37.239 29.9302 37.3655 29.6191 37.3127 29.3113L36.7673 26.131L39.078 23.8787C39.3016 23.6607 39.382 23.3348 39.2855 23.0377Z" fill="url(#paint2_linear_106_176)"/>
<path d="M34.3662 0H5.63375C2.52734 0 0 2.52727 0 5.63375V9.43523C0 12.3356 2.20281 14.7311 5.02352 15.0361L6.24164 16.659C6.6432 17.194 7.25703 17.5068 7.92578 17.5172C7.93726 17.5173 7.94883 17.5174 7.96023 17.5174C8.61594 17.5174 9.225 17.2252 9.63578 16.712L10.9515 15.0689H34.3662C37.4727 15.0689 40 12.5416 40 9.43515V5.63367C40 2.52726 37.4727 0 34.3662 0ZM17.4869 11.0146H6.82C6.17281 11.0146 5.64812 10.4899 5.64812 9.84273C5.64812 9.19555 6.17281 8.67086 6.82 8.67086H17.4869C18.1341 8.67086 18.6587 9.19555 18.6587 9.84273C18.6587 10.4899 18.1341 11.0146 17.4869 11.0146ZM33.18 6.30273H6.82C6.17281 6.30273 5.64812 5.77805 5.64812 5.13086C5.64812 4.48367 6.17281 3.95898 6.82 3.95898H33.18C33.8272 3.95898 34.3519 4.48367 34.3519 5.13086C34.3519 5.77805 33.8272 6.30273 33.18 6.30273Z" fill="url(#paint3_linear_106_176)"/>
<defs>
<linearGradient id="paint0_linear_106_176" x1="0" y1="0" x2="29.1316" y2="38.4952" gradientUnits="userSpaceOnUse">
<stop stop-color="white"/>
<stop offset="1" stop-color="white" stop-opacity="0.5"/>
</linearGradient>
<linearGradient id="paint1_linear_106_176" x1="0" y1="0" x2="29.1316" y2="38.4952" gradientUnits="userSpaceOnUse">
<stop stop-color="white"/>
<stop offset="1" stop-color="white" stop-opacity="0.5"/>
</linearGradient>
<linearGradient id="paint2_linear_106_176" x1="0" y1="0" x2="29.1316" y2="38.4952" gradientUnits="userSpaceOnUse">
<stop stop-color="white"/>
<stop offset="1" stop-color="white" stop-opacity="0.5"/>
</linearGradient>
<linearGradient id="paint3_linear_106_176" x1="0" y1="0" x2="29.1316" y2="38.4952" gradientUnits="userSpaceOnUse">
<stop stop-color="white"/>
<stop offset="1" stop-color="white" stop-opacity="0.5"/>
</linearGradient>
</defs>
</svg>
