<svg width="20" height="20" viewBox="0 0 20 20" fill="none" xmlns="http://www.w3.org/2000/svg">
<path d="M11.9979 1.37297L7.93282 5.43805C7.92497 5.44586 7.92009 5.45535 7.91228 5.46324C8.91372 5.31738 9.94251 5.41738 10.8962 5.78926L13.6552 3.03027C14.5692 2.11625 16.0557 2.11625 16.9697 3.03027C17.8838 3.94422 17.8838 5.43082 16.9697 6.34477C16.8139 6.5007 12.6696 10.645 12.9047 10.4098C11.9834 11.3312 10.472 11.2918 9.59009 10.4098C9.13333 9.95309 8.38966 9.95309 7.93282 10.4098L7.22134 11.1213C7.41868 11.4566 7.64493 11.7793 7.93282 12.0672C9.66876 13.8031 12.6568 13.9418 14.5368 12.0877C14.5446 12.0799 14.5541 12.075 14.562 12.0672L18.627 8.00211C20.4576 6.17148 20.4576 3.20359 18.627 1.37297C16.7964 -0.457656 13.8286 -0.457656 11.9979 1.37297Z" fill="white"/>
<path d="M9.11267 14.2019L6.34478 16.9698C5.43083 17.8838 3.94423 17.8838 3.03028 16.9698C2.11626 16.0557 2.11626 14.5692 3.03028 13.6552C3.18614 13.4993 7.33927 9.34621 7.10423 9.58125C8.02548 8.66 9.53688 8.69934 10.4188 9.58125C10.8756 10.0381 11.6193 10.0381 12.0761 9.58125L12.7875 8.86977C12.5902 8.53445 12.364 8.2118 12.0761 7.92399C10.3434 6.19129 7.35759 6.04387 5.47212 7.9034C5.46427 7.91121 5.45481 7.91613 5.44692 7.92399L1.37294 11.998C-0.457607 13.8285 -0.457685 16.7965 1.37294 18.6271C3.20356 20.4577 6.17153 20.4577 8.00208 18.6271L12.076 14.5531C12.0839 14.5453 12.0888 14.5359 12.0966 14.5279C11.0951 14.6738 10.0664 14.5738 9.11267 14.2019Z" fill="white"/>
</svg>
