<svg width="20" height="19" viewBox="0 0 20 19" fill="none" xmlns="http://www.w3.org/2000/svg">
<path d="M18.1641 0H1.75781C0.788516 0 0 0.788516 0 1.75781V4.6875H20V1.75781C20 0.788516 19.1334 0 18.1641 0ZM2.92969 3.51562C2.60609 3.51562 2.34375 3.25328 2.34375 2.92969C2.34375 2.60602 2.60609 2.34375 2.92969 2.34375C3.25328 2.34375 3.51562 2.60602 3.51562 2.92969C3.51562 3.25328 3.25328 3.51562 2.92969 3.51562ZM5.27344 3.51562C4.94984 3.51562 4.6875 3.25328 4.6875 2.92969C4.6875 2.60602 4.94984 2.34375 5.27344 2.34375C5.59703 2.34375 5.85938 2.60602 5.85938 2.92969C5.85938 3.25328 5.59703 3.51562 5.27344 3.51562ZM7.61719 3.51562C7.29359 3.51562 7.03125 3.25328 7.03125 2.92969C7.03125 2.60602 7.29359 2.34375 7.61719 2.34375C7.94078 2.34375 8.20312 2.60602 8.20312 2.92969C8.20312 3.25328 7.94078 3.51562 7.61719 3.51562ZM16.9922 3.51562H9.96094C9.18855 3.51562 9.18539 2.34375 9.96094 2.34375H16.9922C17.7646 2.34375 17.7677 3.51562 16.9922 3.51562Z" fill="white"/>
<path d="M0 5.9375V15.8984C0 16.8677 0.788516 17.6562 1.75781 17.6562H4.94727L4.57477 17.2837C4.3459 17.0549 4.3459 16.6841 4.57477 16.4552L5.20246 15.8269C5.1218 15.6593 5.05082 15.4876 4.98844 15.3125H4.10156C3.7777 15.3125 3.51562 15.0504 3.51562 14.7266V12.3828C3.51562 12.0589 3.7777 11.7969 4.10156 11.7969H4.98848C5.05086 11.6218 5.1218 11.4501 5.2025 11.2825L4.5748 10.6542C4.34594 10.4253 4.34594 10.0545 4.5748 9.82563L6.23191 8.16852C6.46078 7.93965 6.8316 7.93965 7.06047 8.16852L7.68875 8.79621C7.85641 8.71555 8.02809 8.64457 8.20316 8.58219V7.69531C8.20316 7.37145 8.46523 7.10938 8.7891 7.10938H11.1329C11.4567 7.10938 11.7188 7.37145 11.7188 7.69531V8.58223C11.8939 8.64461 12.0655 8.71555 12.2332 8.79625L12.8615 8.16856C13.0904 7.93969 13.4612 7.93969 13.69 8.16856L15.3471 9.82566C15.576 10.0545 15.576 10.4254 15.3471 10.6542L14.7195 11.2825C14.8001 11.4502 14.8711 11.6218 14.9335 11.7969H15.8203C16.1442 11.7969 16.4062 12.059 16.4062 12.3829V14.7266C16.4062 15.0505 16.1442 15.3125 15.8203 15.3125H14.9334C14.871 15.4876 14.8001 15.6593 14.7194 15.827L15.3471 16.4552C15.5759 16.6841 15.5759 17.0549 15.3471 17.2838L14.9746 17.6562H18.1641C19.1334 17.6562 20 16.8677 20 15.8984V5.9375H0Z" fill="white"/>
<path d="M9.96094 11.7969C8.99164 11.7969 8.20312 12.5854 8.20312 13.5547C8.20312 14.524 8.99164 15.3125 9.96094 15.3125C10.9302 15.3125 11.7188 14.524 11.7188 13.5547C11.7188 12.5854 10.9302 11.7969 9.96094 11.7969Z" fill="white"/>
<path d="M14.5002 12.9688C14.233 12.9688 13.9996 12.7879 13.9332 12.5293C13.837 12.1591 13.6894 11.8038 13.4943 11.473C13.3581 11.243 13.3947 10.95 13.5841 10.7606L14.1043 10.2399L13.2757 9.41137L12.755 9.93148C12.5662 10.122 12.2721 10.1575 12.0426 10.0213C11.7119 9.82621 11.3566 9.67859 10.9863 9.58246C10.7277 9.51609 10.5469 9.28262 10.5469 9.01539V8.28125H9.375V9.01539C9.375 9.28262 9.19418 9.51605 8.93555 9.58246C8.56531 9.67859 8.21 9.82621 7.87926 10.0213C7.65039 10.1581 7.35625 10.122 7.16687 9.93148L6.64617 9.41137L5.81762 10.2399L6.33773 10.7606C6.52715 10.95 6.56375 11.243 6.42758 11.473C6.23246 11.8038 6.08484 12.1591 5.98871 12.5293C5.92234 12.7879 5.68887 12.9688 5.42164 12.9688H4.6875V14.1406H5.42164C5.68887 14.1406 5.9223 14.3214 5.98871 14.5801C6.08484 14.9503 6.23246 15.3056 6.42758 15.6364C6.56375 15.8664 6.52715 16.1594 6.33773 16.3487L5.81762 16.8695L6.64617 17.698L7.16687 17.1779C7.35629 16.9873 7.6498 16.9519 7.87926 17.088C8.21 17.2832 8.56531 17.4308 8.93555 17.5269C9.19418 17.5933 9.375 17.8268 9.375 18.094V18.8281H10.5469V18.094C10.5469 17.8268 10.7277 17.5933 10.9863 17.5269C11.3566 17.4308 11.7119 17.2832 12.0426 17.088C12.2727 16.9524 12.5662 16.9885 12.755 17.1779L13.2757 17.698L14.1043 16.8695L13.5841 16.3487C13.3947 16.1593 13.3581 15.8664 13.4943 15.6364C13.6894 15.3056 13.837 14.9503 13.9332 14.5801C13.9995 14.3214 14.233 14.1406 14.5002 14.1406H15.2344V12.9688H14.5002ZM9.96094 16.4844C8.34559 16.4844 7.03125 15.17 7.03125 13.5547C7.03125 11.9393 8.34559 10.625 9.96094 10.625C11.5763 10.625 12.8906 11.9393 12.8906 13.5547C12.8906 15.17 11.5763 16.4844 9.96094 16.4844Z" fill="white"/>
</svg>
