<svg width="20" height="20" viewBox="0 0 20 20" fill="none" xmlns="http://www.w3.org/2000/svg">
<path d="M0.00456596 8.71332C-0.0388715 9.06289 0.233746 9.37152 0.586011 9.37152H2.96984C3.25597 9.37152 3.50027 9.16484 3.54765 8.88261C4.00644 6.15039 6.15035 4.00644 8.88257 3.54769C9.1648 3.50031 9.37148 3.25601 9.37148 2.96984V0.586011C9.37148 0.233746 9.06289 -0.0388715 8.71328 0.00456596C6.51523 0.27773 4.43875 1.2941 2.8664 2.8664C1.2941 4.43875 0.27773 6.51523 0.00456596 8.71332Z" fill="white"/>
<path d="M13.7334 15.2609C12.6213 16.055 11.3173 16.4747 9.96233 16.4747C6.77401 16.4747 4.07628 14.1899 3.54768 11.0419C3.5003 10.7598 3.256 10.553 2.96987 10.553H0.586003C0.233737 10.553 -0.0388802 10.8616 0.00455726 11.2112C0.627253 16.2216 4.90815 20 9.96233 20C12.2139 20 14.3432 19.2692 16.1201 17.8866C16.3982 17.6701 16.4237 17.259 16.1746 17.0098L14.4882 15.3235C14.2857 15.121 13.9665 15.0945 13.7334 15.2609Z" fill="white"/>
<path d="M11.0419 3.54768C14.1899 4.07628 16.4747 6.77401 16.4747 9.96233C16.4747 11.3173 16.055 12.6213 15.261 13.7334C15.0946 13.9665 15.121 14.2857 15.3235 14.4882L17.0099 16.1746C17.2591 16.4238 17.6702 16.3982 17.8866 16.1201C19.2692 14.3433 20 12.2139 20 9.96233C20 4.90815 16.2216 0.627253 11.2112 0.00455726C10.8617 -0.0388802 10.553 0.233737 10.553 0.586003V2.96983C10.553 3.256 10.7597 3.5003 11.0419 3.54768Z" fill="white"/>
<path d="M10.3525 5.93608H9.57077C9.24717 5.93608 8.98483 6.19842 8.98483 6.52202V13.3579H10.9384V6.52202C10.9384 6.19842 10.6761 5.93608 10.3525 5.93608Z" fill="white"/>
<path d="M12.1103 13.3579H13.478C13.8015 13.3579 14.0639 13.0955 14.0639 12.7719V8.08448C14.0639 7.76089 13.8015 7.49854 13.478 7.49854H12.1103V13.3579Z" fill="white"/>
<path d="M7.81296 9.06104H6.44678C6.12319 9.06104 5.86085 9.32339 5.86085 9.64698V12.7719C5.86085 13.0955 6.12319 13.3579 6.44678 13.3579H7.81296V9.06104Z" fill="white"/>
</svg>
