<svg width="20" height="20" viewBox="0 0 20 20" fill="none" xmlns="http://www.w3.org/2000/svg">
<path d="M19.6445 11.9076L7.36254 6.59293C7.14223 6.49965 6.88703 6.54828 6.71766 6.71766C6.54828 6.88703 6.49906 7.14223 6.59293 7.36254L11.9076 19.6446C12.0009 19.8615 12.2137 20 12.4466 20C12.4637 20 12.4815 19.9994 12.4998 19.9977C12.7527 19.9748 12.9621 19.7911 13.0182 19.5434L14.2507 14.2507L19.5432 13.0182C19.791 12.9621 19.9747 12.7527 19.9976 12.4998C20.0205 12.2469 19.878 12.0077 19.6445 11.9076Z" fill="white"/>
<path d="M7.61719 4.6875C7.94105 4.6875 8.20312 4.42543 8.20312 4.10156V0.585938C8.20312 0.26207 7.94105 0 7.61719 0C7.29332 0 7.03125 0.26207 7.03125 0.585938V4.10156C7.03125 4.42543 7.29332 4.6875 7.61719 4.6875Z" fill="white"/>
<path d="M4.71727 9.68855L2.23105 12.1748C2.00219 12.4036 2.00219 12.7745 2.23105 13.0033C2.45996 13.2322 2.8307 13.2322 3.05961 13.0033L5.54582 10.5171C5.77469 10.2882 5.77469 9.91742 5.54582 9.68855C5.31695 9.45969 4.94613 9.45969 4.71727 9.68855Z" fill="white"/>
<path d="M10.5171 5.54582L13.0033 3.05961C13.2322 2.83074 13.2322 2.45992 13.0033 2.23105C12.7745 2.00219 12.4036 2.00219 12.1748 2.23105L9.68855 4.71727C9.45969 4.94613 9.45969 5.31695 9.68855 5.54582C9.91746 5.77469 10.2882 5.77469 10.5171 5.54582Z" fill="white"/>
<path d="M3.05957 2.23102C2.8307 2.00215 2.45988 2.00215 2.23102 2.23102C2.00215 2.45988 2.00215 2.8307 2.23102 3.05957L4.71723 5.54578C4.94613 5.77469 5.31687 5.77469 5.54578 5.54578C5.77465 5.31691 5.77465 4.94609 5.54578 4.71723L3.05957 2.23102Z" fill="white"/>
<path d="M4.6875 7.61719C4.6875 7.29332 4.42543 7.03125 4.10156 7.03125H0.585938C0.26207 7.03125 0 7.29332 0 7.61719C0 7.94105 0.26207 8.20312 0.585938 8.20312H4.10156C4.42543 8.20312 4.6875 7.94105 4.6875 7.61719Z" fill="white"/>
</svg>
