<svg width="20" height="20" viewBox="0 0 20 20" fill="none" xmlns="http://www.w3.org/2000/svg">
<path d="M20 4.72656V2.14828C20 0.963745 19.0363 0 17.8517 0H2.14829C0.963745 0 2.98023e-07 0.963745 2.98023e-07 2.14828V4.72656H20ZM17.0312 2.38281C17.3549 2.38281 17.6172 2.64511 17.6172 2.96875C17.6172 3.29239 17.3549 3.55469 17.0312 3.55469C16.7076 3.55469 16.4453 3.29239 16.4453 2.96875C16.4453 2.64511 16.7076 2.38281 17.0312 2.38281ZM14.6875 2.38281C15.0111 2.38281 15.2734 2.64511 15.2734 2.96875C15.2734 3.29239 15.0111 3.55469 14.6875 3.55469C14.3639 3.55469 14.1016 3.29239 14.1016 2.96875C14.1016 2.64511 14.3639 2.38281 14.6875 2.38281ZM12.3438 2.38281C12.6674 2.38281 12.9297 2.64511 12.9297 2.96875C12.9297 3.29239 12.6674 3.55469 12.3438 3.55469C12.0201 3.55469 11.7578 3.29239 11.7578 2.96875C11.7578 2.64511 12.0201 2.38281 12.3438 2.38281Z" fill="white"/>
<path d="M0 5.89844V17.8517C0 19.0363 0.963745 20 2.14828 20H17.8517C19.0363 20 20 19.0363 20 17.8517V5.89844H0ZM2.43362 7.65808C2.43362 7.33459 2.69592 7.07214 3.01956 7.07214H17.0293C17.3529 7.07214 17.6152 7.33459 17.6152 7.65808V12.3456C17.6152 12.6692 17.3529 12.9315 17.0293 12.9315H3.01956C2.69592 12.9315 2.43362 12.6692 2.43362 12.3456V7.65808ZM17.5781 14.6875C17.5781 15.0111 17.3158 15.2734 16.9922 15.2734H11.1719C10.8482 15.2734 10.5859 15.0111 10.5859 14.6875C10.5859 14.3639 10.8482 14.1016 11.1719 14.1016H16.9922C17.3158 14.1016 17.5781 14.3639 17.5781 14.6875ZM2.96875 14.1016H8.78906C9.1127 14.1016 9.375 14.3639 9.375 14.6875C9.375 15.0111 9.1127 15.2734 8.78906 15.2734H2.96875C2.64511 15.2734 2.38281 15.0111 2.38281 14.6875C2.38281 14.3639 2.64511 14.1016 2.96875 14.1016ZM8.82812 17.6172H2.96875C2.64511 17.6172 2.38281 17.3549 2.38281 17.0312C2.38281 16.7076 2.64511 16.4453 2.96875 16.4453H8.82812C9.15176 16.4453 9.41406 16.7076 9.41406 17.0312C9.41406 17.3549 9.15176 17.6172 8.82812 17.6172ZM17.0312 17.6172H11.1719C10.8482 17.6172 10.5859 17.3549 10.5859 17.0312C10.5859 16.7076 10.8482 16.4453 11.1719 16.4453H17.0312C17.3549 16.4453 17.6172 16.7076 17.6172 17.0312C17.6172 17.3549 17.3549 17.6172 17.0312 17.6172Z" fill="white"/>
<path d="M3.6055 8.24402H16.4433V11.7596H3.6055V8.24402Z" fill="white"/>
</svg>
