<svg width="20" height="20" viewBox="0 0 20 20" fill="none" xmlns="http://www.w3.org/2000/svg">
<path d="M0 6.52176V17.6087C0 18.6893 0.875938 19.5652 1.95652 19.5652H18.0435C19.124 19.5652 20 18.6893 20 17.6087V6.52176H0ZM10.2174 15.6522H3.26086C2.90082 15.6522 2.60867 15.36 2.60867 15C2.60867 14.64 2.90082 14.3478 3.26086 14.3478H10.2174C10.5774 14.3478 10.8696 14.64 10.8696 15C10.8696 15.36 10.5774 15.6522 10.2174 15.6522ZM16.7391 13.0435H3.26086C2.90082 13.0435 2.60867 12.7513 2.60867 12.3913C2.60867 12.0313 2.90082 11.7391 3.26086 11.7391H16.7391C17.0991 11.7391 17.3913 12.0313 17.3913 12.3913C17.3913 12.7514 17.0992 13.0435 16.7391 13.0435ZM16.7391 10.4348H3.26086C2.90082 10.4348 2.60867 10.1427 2.60867 9.78262C2.60867 9.42258 2.90082 9.13043 3.26086 9.13043H16.7391C17.0991 9.13043 17.3913 9.42258 17.3913 9.78262C17.3913 10.1427 17.0992 10.4348 16.7391 10.4348Z" fill="white"/>
<path d="M18.0435 0H1.95652C0.875938 0 0 0.875977 0 1.95652V5.21738H20V1.95652C20 0.875977 19.1241 0 18.0435 0ZM3.26086 3.91305C2.9007 3.91305 2.60867 3.62105 2.60867 3.26086C2.60867 2.9007 2.90066 2.60867 3.26086 2.60867C3.62105 2.60867 3.91305 2.90066 3.91305 3.26086C3.91305 3.62105 3.62105 3.91305 3.26086 3.91305ZM5.86957 3.91305C5.50941 3.91305 5.21738 3.62105 5.21738 3.26086C5.21738 2.9007 5.50938 2.60867 5.86957 2.60867C6.22977 2.60867 6.52176 2.90066 6.52176 3.26086C6.52176 3.62105 6.22973 3.91305 5.86957 3.91305ZM8.47824 3.91305C8.11809 3.91305 7.82605 3.62105 7.82605 3.26086C7.82605 2.9007 8.11805 2.60867 8.47824 2.60867C8.8384 2.60867 9.13043 2.90066 9.13043 3.26086C9.13043 3.62105 8.83844 3.91305 8.47824 3.91305Z" fill="white"/>
</svg>
