<svg width="18" height="15" viewBox="0 0 18 15" fill="none" xmlns="http://www.w3.org/2000/svg">
<path fill-rule="evenodd" clip-rule="evenodd" d="M1.21257 6.28924C5.9474 4.22752 9.1047 2.86831 10.6845 2.2116C15.195 0.336581 16.1323 0.0108699 16.7431 0.000114674C16.8775 -0.00225081 17.1779 0.0310284 17.3725 0.188841C17.5368 0.322095 17.582 0.502102 17.6037 0.628441C17.6253 0.75478 17.6522 1.04258 17.6308 1.26747C17.3864 3.83423 16.3288 10.0631 15.7907 12.9379C15.563 14.1544 15.1147 14.5622 14.6807 14.6021C13.7375 14.6889 13.0213 13.9792 12.1078 13.3807C10.6783 12.4442 9.87071 11.8612 8.48313 10.9473C6.87955 9.89116 7.91909 9.31069 8.83296 8.36203C9.07213 8.11377 13.2279 4.33595 13.3083 3.99324C13.3184 3.95038 13.3277 3.79061 13.2327 3.70625C13.1378 3.62189 12.9976 3.65074 12.8965 3.67368C12.7531 3.7062 10.4694 5.21474 6.04553 8.19931C5.39733 8.64416 4.81021 8.86091 4.28417 8.84955C3.70425 8.83703 2.58872 8.52184 1.75944 8.25243C0.742288 7.92198 -0.0661212 7.74727 0.00427313 7.18607C0.0409388 6.89376 0.443703 6.59482 1.21257 6.28924Z" fill="#1A89F9"/>
</svg>
