<svg width="48" height="48" viewBox="0 0 48 48" fill="none" xmlns="http://www.w3.org/2000/svg">
<path d="M24 0C37.2535 0 48 10.7465 48 24C48 37.2535 37.2535 48 24 48C10.7465 48 0 37.2535 0 24C0 10.7465 10.7465 0 24 0Z" fill="#FC3F1D"/>
<path d="M27.3316 37.7989H32.3457V9.00416H25.0507C17.7157 8.99751 13.8587 12.7681 13.8587 18.3209C13.8587 22.7565 15.9734 25.3633 19.7439 28.0565L13.2003 37.7922H18.6267L25.9152 26.8928L23.3882 25.197C20.3225 23.1289 18.8329 21.5129 18.8329 18.0283C18.8329 14.9626 20.9875 12.8878 25.0906 12.8878H27.325L27.3316 37.7989Z" fill="white"/>
</svg>
