<svg width="132" height="43" viewBox="0 0 132 43" fill="none" xmlns="http://www.w3.org/2000/svg">
<path d="M23.3811 4.05192C19.8513 5.72534 13.1688 8.87967 8.52279 11.0566L0.0754229 15.0402L0.0301692 18.5352L0 22.0301L0.331861 21.9264C0.527961 21.8672 3.6203 20.4752 7.22552 18.8165C10.8307 17.1579 13.8024 15.8251 13.8326 15.8547C13.8778 15.8844 13.4555 17.6022 12.9124 19.6755C9.75973 31.6116 6.80315 42.9553 6.8484 42.9997C6.87857 43.0442 18.5993 37.6981 20.3642 36.8244L21.043 36.4986L25.4779 18.9943C27.9216 9.38318 29.9429 1.38629 29.9882 1.2382C30.0183 1.10492 29.9882 0.986446 29.9278 1.00126C29.8524 1.01606 26.9109 2.3785 23.3811 4.05192Z" fill="#1A89F9"/>
<path d="M36.4592 20.9588L36.5093 29.3774L38.0633 29.4271L39.6005 29.4768V25.8972V22.3343H42.7752H45.9498V21.0085V19.6827H42.7752H39.6005V17.4455V15.2083H43.1929H46.7853V13.8825V12.5567H41.6055H36.4258L36.4592 20.9588Z" fill="#1A89F9"/>
<path d="M48.1211 14.1312V15.7056H49.7084H51.2958V14.1312V12.5569H49.7084H48.1211V14.1312Z" fill="#1A89F9"/>
<path d="M81.4895 20.959L81.5396 29.3776H83.0768H84.6307L84.6809 26.1792L84.7143 22.9974H85.8839H87.0368L88.9918 26.2289L90.9467 29.4604H92.7513C93.7538 29.4604 94.5725 29.4273 94.5725 29.361C94.5725 29.2782 93.2525 27.1735 91.214 24.0082C90.6459 23.0968 90.3953 22.583 90.529 22.5333C91.0804 22.351 92.3669 21.3567 92.8348 20.727C94.255 18.8709 93.8707 15.3245 92.0996 13.8827C91.7654 13.601 91.0637 13.2198 90.5624 13.021C89.7269 12.6895 89.2925 12.6398 85.5497 12.5901L81.4561 12.5404L81.4895 20.959ZM89.4262 15.6725C90.6961 16.468 90.9133 18.5395 89.8272 19.6167C89.1254 20.3127 88.3401 20.5115 86.3518 20.5115H84.7143V17.8434V15.1753L86.7695 15.2251C88.5406 15.2913 88.8915 15.3411 89.4262 15.6725Z" fill="#1A89F9"/>
<path d="M120.638 21.0085V29.4768L122.108 29.4271L123.562 29.3774L123.612 27.3887L123.662 25.4001L124.264 24.7869C124.614 24.4389 124.932 24.1572 124.999 24.1572C125.066 24.1572 125.884 25.3504 126.82 26.8087L128.524 29.4602H130.262C131.214 29.4602 132 29.4105 132 29.3608C132 29.3111 130.914 27.6705 129.594 25.7315L127.171 22.1851L129.326 19.8982L131.498 17.6112L129.878 17.5615L128.24 17.5118L125.918 19.8484C124.631 21.1245 123.578 22.1685 123.578 22.1685C123.562 22.1685 123.578 20.0142 123.612 17.3626L123.662 12.5567H122.141H120.638V21.0085Z" fill="#1A89F9"/>
<path d="M73.5187 15.7055V17.5284H72.5162H71.5137V18.6056V19.6828H72.5162H73.5187V23.1132C73.5187 26.8088 73.619 27.5048 74.304 28.3003C75.0225 29.162 75.5739 29.3443 77.5289 29.3609L79.2833 29.3774L79.3334 28.118L79.3835 26.8419L78.1805 26.7756C77.2615 26.7259 76.944 26.6431 76.7603 26.3945C76.5765 26.1625 76.5263 25.3504 76.5263 22.8812V19.6828H77.9466H79.3668V18.6056V17.5284H77.9466H76.543L76.4929 15.7386L76.4428 13.9654L74.9891 13.9157L73.5187 13.866V15.7055Z" fill="#1A89F9"/>
<path d="M64.2458 17.4124C62.7421 17.9096 62.0236 18.4896 61.5724 19.5502C61.0712 20.76 61.4053 22.5995 62.2575 23.3618C62.8256 23.859 64.0286 24.2898 65.6494 24.5881C67.8884 24.9859 68.5233 25.6985 67.6043 26.7591C67.2367 27.1899 67.1031 27.2231 66.0003 27.2231C64.8975 27.2231 64.7638 27.1899 64.3962 26.7591C64.179 26.5105 63.9952 26.1459 63.9952 25.947C63.9952 25.6156 63.9451 25.6156 62.7086 25.715C61.9902 25.7813 61.3385 25.8973 61.255 25.9802C61.021 26.2122 61.3051 27.2231 61.8064 27.9191C63.0762 29.6592 66.9193 30.1563 69.1248 28.8637C70.5117 28.0683 71.1967 26.0962 70.6119 24.5881C70.1107 23.2789 69.1081 22.6989 66.535 22.2349C64.8474 21.9366 64.1623 21.5554 64.1623 20.9257C64.1623 19.9977 64.8139 19.5171 66.0838 19.5171C66.7188 19.5171 66.9527 19.5999 67.3537 19.9977C67.621 20.2628 67.8383 20.6108 67.8383 20.7434C67.8383 21.0417 68.3228 21.0749 69.8099 20.9091C70.7456 20.7931 70.7623 20.76 70.495 19.7988C70.0772 18.2907 68.5233 17.3627 66.2509 17.2633C65.4155 17.2136 64.6636 17.2799 64.2458 17.4124Z" fill="#1A89F9"/>
<path d="M98.4986 17.4289C97.0282 17.8929 96.126 18.6055 95.6748 19.7158C95.1568 20.9256 95.2404 21.0085 96.7442 21.0085C98.0308 21.0085 98.0809 20.9919 98.3148 20.5279C98.6323 19.9313 99.5012 19.517 100.504 19.517C101.84 19.517 102.592 20.1633 102.592 21.3399C102.592 21.7874 102.542 21.8039 101.723 21.9199C96.6439 22.5331 95.2738 23.312 95.1067 25.6652C94.973 27.571 95.8753 28.8636 97.6966 29.3939C99.3508 29.8745 101.891 29.3608 102.475 28.4493C102.759 27.9853 102.843 28.0516 102.843 28.7476V29.3774L104.313 29.4271L105.784 29.4768L105.734 24.8698C105.683 20.4284 105.667 20.2296 105.299 19.4673C104.781 18.4564 103.962 17.7935 102.776 17.462C101.64 17.1472 99.451 17.1306 98.4986 17.4289ZM102.693 24.6875C102.559 25.6818 102.225 26.2287 101.423 26.759C100.704 27.2561 99.8687 27.3887 99.0667 27.1567C97.8303 26.7921 97.5796 25.3669 98.6156 24.6046C98.8829 24.4057 99.6014 24.2069 100.52 24.0743C102.96 23.7263 102.826 23.6766 102.693 24.6875Z" fill="#1A89F9"/>
<path d="M112.935 17.4621C112.518 17.5781 111.816 17.9924 111.398 18.3735L110.613 19.053V18.2907V17.5284H109.193H107.772V23.4943V29.4602H109.276H110.78V25.6818C110.78 22.1022 110.797 21.8702 111.164 21.1742C111.649 20.2296 112.234 19.8153 113.236 19.7324C114.155 19.6662 114.673 19.8816 115.191 20.561C115.525 21.0085 115.542 21.2902 115.626 25.2012L115.709 29.3774L117.18 29.4271L118.633 29.4768V25.3007C118.633 20.2296 118.5 19.5336 117.297 18.3404C116.177 17.2301 114.657 16.9318 112.935 17.4621Z" fill="#1A89F9"/>
<path d="M57.5116 17.7272C57.1273 17.9427 56.626 18.3735 56.3754 18.6884L55.9577 19.2684L56.0747 18.3901L56.1916 17.5284H54.6544H53.1172L53.1673 23.4446L53.2174 29.3774L54.6711 29.4271L56.1081 29.4768L56.1749 25.7812C56.225 22.2017 56.2417 22.0691 56.6428 21.3731C57.1774 20.4285 57.9126 19.9976 59.099 19.9313C59.6336 19.8982 60.0681 19.8153 60.0848 19.7324C60.1015 19.6662 60.1516 19.1027 60.2017 18.473L60.2853 17.3626H59.2326C58.4807 17.3626 58.0129 17.4621 57.5116 17.7272Z" fill="#1A89F9"/>
<path d="M48.1545 23.4446L48.2046 29.3774L49.675 29.4271L51.1287 29.4768V23.4943V17.5284H49.6249H48.1211L48.1545 23.4446Z" fill="#1A89F9"/>
</svg>
