<svg width="20" height="20" viewBox="0 0 20 20" fill="none" xmlns="http://www.w3.org/2000/svg">
<path d="M7.44793 0V1.84113C7.44793 3.24832 8.59277 4.3932 10 4.3932C11.4072 4.3932 12.5521 3.24832 12.5521 1.84113V0H7.44793Z" fill="white"/>
<path d="M19.5562 1.27273L14.5354 0.0175C14.4889 0.00585938 14.4411 0 14.3932 0H13.724V1.84113C13.724 3.89449 12.0534 5.56508 10 5.56508C7.94664 5.56508 6.27605 3.89449 6.27605 1.84113V0H5.60676C5.55887 0 5.51117 0.00585938 5.46465 0.0175L0.443828 1.27273C0.182969 1.33793 0 1.5723 0 1.84121V6.86199C0 7.18559 0.262344 7.44793 0.585938 7.44793H3.76562V19.4141C3.76562 19.7377 4.02797 20 4.35156 20H15.6485C15.9721 20 16.2344 19.7377 16.2344 19.4141V7.44793H19.4141C19.7377 7.44793 20 7.18559 20 6.86199V1.84121C20 1.5723 19.817 1.33793 19.5562 1.27273Z" fill="white"/>
</svg>
