<svg width="19" height="20" viewBox="0 0 19 20" fill="none" xmlns="http://www.w3.org/2000/svg">
<path d="M19.0012 4.87696C18.9263 1.69906 15.7012 -0.676916 12.6476 0.174477C10.5855 0.71616 8.42865 0.716121 6.3666 0.174438C2.14482 -0.937977 -1.4301 3.53472 0.57127 7.39651L2.2969 10.8567C2.66014 11.585 2.88438 12.3748 2.95806 13.1854L3.46878 18.8031C3.5304 19.481 4.09875 20 4.77939 20C5.33989 20 5.83937 19.6453 6.02261 19.1156C8.48312 12.1751 10.6059 12.0894 13.0646 19.1393C13.2413 19.6544 13.7259 20 14.2705 20C14.9244 20 15.4724 19.5053 15.539 18.8548L16.1294 13.09C16.2061 12.3415 16.4113 11.6118 16.7359 10.9329L18.3204 7.61957C18.7864 6.81874 19.0393 5.87872 19.0012 4.87696ZM12.5185 4.40079L11.2015 4.99449C10.1255 5.47955 8.89068 5.48092 7.81364 4.99839L6.48124 4.40138C6.16735 4.26074 6.02691 3.89226 6.16755 3.57837C6.30819 3.26448 6.67674 3.12404 6.99056 3.26468L8.32295 3.86169C9.07537 4.19877 9.93797 4.1978 10.6896 3.85896L12.0065 3.26526C12.3201 3.12388 12.6889 3.26351 12.8302 3.57708C12.9716 3.89062 12.832 4.25941 12.5185 4.40079Z" fill="white"/>
</svg>
