<svg width="16" height="20" viewBox="0 0 16 20" fill="none" xmlns="http://www.w3.org/2000/svg">
<path d="M6.50523 0H9.49481V2.66668H6.50523V0Z" fill="white"/>
<path d="M5.33332 0C5.17793 0 5.02891 0.0617188 4.91902 0.171602L2.83828 2.25234C2.7284 2.36223 2.66668 2.51125 2.66668 2.66668V4.16145H5.33336L5.33332 0Z" fill="white"/>
<path d="M13.3333 2.66668C13.3333 2.51129 13.2716 2.36223 13.1617 2.25234L11.081 0.171602C10.9711 0.0617188 10.8221 0 10.6667 0V4.16145H13.3334L13.3333 2.66668Z" fill="white"/>
<path d="M11.0964 10.7832V13.9636H12.4349V8.9516C11.3278 9.30691 11.0964 10.3328 11.0964 10.7832Z" fill="white"/>
<path d="M4.0368 11.6091C4.34094 11.9132 4.74547 12.0807 5.17578 12.0807C5.60609 12.0807 6.01059 11.9132 6.31477 11.609C6.55379 11.37 6.70844 11.0689 6.76371 10.7421H3.58781C3.64313 11.069 3.79773 11.37 4.0368 11.6091Z" fill="white"/>
<path d="M15.4141 5.33332H0.585937C0.262344 5.33332 0 5.59566 0 5.91926V19.4141C0 19.7377 0.262344 20 0.585937 20H15.4141C15.7377 20 16 19.7377 16 19.4141V5.91926C16 5.59566 15.7377 5.33332 15.4141 5.33332ZM7.95836 10.47C7.95836 12.307 6.44082 13.0457 5.76176 13.1905V17.0599C5.76176 17.3835 5.49942 17.6458 5.17582 17.6458C4.85223 17.6458 4.58988 17.3835 4.58988 17.0599V13.1905C3.91063 13.0456 2.39328 12.3069 2.39328 10.47V8.27344C2.39328 7.94984 2.65563 7.6875 2.97922 7.6875C3.30281 7.6875 3.56516 7.94984 3.56516 8.27344V9.57031H4.58984V8.27344C4.58984 7.94984 4.85219 7.6875 5.17578 7.6875C5.49938 7.6875 5.76172 7.94984 5.76172 8.27344V9.57031H6.78645V8.27344C6.78645 7.94984 7.04879 7.6875 7.37238 7.6875C7.69598 7.6875 7.95832 7.94984 7.95832 8.27344L7.95836 10.47ZM13.6068 17.0599C13.6068 17.3835 13.3444 17.6458 13.0208 17.6458C12.6972 17.6458 12.4349 17.3835 12.4349 17.0599V15.1354H10.5104C10.1868 15.1354 9.92445 14.873 9.92445 14.5495V10.7832C9.92445 9.07586 11.3139 7.6875 13.0202 7.6875C13.3438 7.6875 13.6068 7.94984 13.6068 8.27344V17.0599Z" fill="white"/>
</svg>
