<svg width="20" height="18" viewBox="0 0 20 18" fill="none" xmlns="http://www.w3.org/2000/svg">
<path d="M9.91559 0.185484C9.78192 0.0425155 9.58535 -0.0240861 9.39215 0.00786702C9.19895 0.0397811 9.03445 0.16607 8.95375 0.344469L3.66668 11.8243C3.4298 11.7622 3.18574 11.7188 2.92969 11.7188C1.31434 11.7188 0 13.0331 0 14.6485C0 16.2638 1.31434 17.5781 2.92969 17.5781C4.54504 17.5781 5.85938 16.2638 5.85938 14.6485C5.85938 14.1665 5.73121 13.7181 5.52406 13.3166L10.2982 2.83443C10.7497 1.93142 10.5655 0.880641 9.91559 0.185484ZM2.92969 16.4063C1.96039 16.4063 1.17188 15.6178 1.17188 14.6485C1.17188 13.6792 1.96039 12.8906 2.92969 12.8906C3.89898 12.8906 4.6875 13.6792 4.6875 14.6485C4.6875 15.6178 3.89898 16.4063 2.92969 16.4063Z" fill="white"/>
<path d="M9.96094 11.7188C9.70488 11.7188 9.46082 11.7622 9.22395 11.8243L8.3527 9.93248L7.08914 12.7072L7.3666 13.3165C7.15941 13.718 7.03125 14.1665 7.03125 14.6485C7.03125 16.2638 8.34559 17.5781 9.96094 17.5781C11.5763 17.5781 12.8906 16.2638 12.8906 14.6485C12.8906 13.0331 11.5763 11.7188 9.96094 11.7188ZM9.96094 16.4063C8.99164 16.4063 8.20312 15.6177 8.20312 14.6485C8.20312 13.6792 8.99164 12.8906 9.96094 12.8906C10.9302 12.8906 11.7188 13.6792 11.7188 14.6485C11.7188 15.6177 10.9302 16.4063 9.96094 16.4063Z" fill="white"/>
<path d="M18.2422 1.54975e-05C17.7268 1.54975e-05 17.54 1.54975e-05 17.4801 1.54975e-05C17.4617 1.54975e-05 17.4548 1.54975e-05 17.4548 1.54975e-05C17.3456 1.54975e-05 16.8154 1.54975e-05 14.6485 1.54975e-05C14.3246 1.54975e-05 14.0625 0.262086 14.0625 0.585953C14.0625 0.90982 14.3246 1.17189 14.6485 1.17189H16.4844V2.34377H14.6485C14.3246 2.34377 14.0625 2.60584 14.0625 2.9297C14.0625 3.25357 14.3246 3.51564 14.6485 3.51564H16.4844V4.68752H14.6485C14.3246 4.68752 14.0625 4.94959 14.0625 5.27345C14.0625 5.59732 14.3246 5.85939 14.6485 5.85939H16.4844V7.03127H14.6485C14.3246 7.03127 14.0625 7.29334 14.0625 7.6172C14.0625 7.94107 14.3246 8.20314 14.6485 8.20314H16.4844V9.37502H14.6485C14.3246 9.37502 14.0625 9.63709 14.0625 9.96095C14.0625 10.2848 14.3246 10.5469 14.6485 10.5469H16.4844V11.7188H14.6485C14.3246 11.7188 14.0625 11.9808 14.0625 12.3047C14.0625 12.6286 14.3246 12.8906 14.6485 12.8906H16.4844V14.0625H14.6485C14.3246 14.0625 14.0625 14.3246 14.0625 14.6485C14.0625 14.9723 14.3246 15.2344 14.6485 15.2344H16.4844V16.4063H14.6485C14.3246 16.4063 14.0625 16.6683 14.0625 16.9922C14.0625 17.3161 14.3246 17.5781 14.6485 17.5781C16.812 17.5781 17.3444 17.5781 17.4548 17.5781C17.4742 17.5781 17.4804 17.5781 17.4804 17.5781C17.5409 17.5781 17.7282 17.5781 18.2422 17.5781C19.2115 17.5781 20 16.7896 20 15.8203V1.75783C20 0.788531 19.2115 1.54975e-05 18.2422 1.54975e-05Z" fill="white"/>
<path d="M3.93691 0.344469C3.85621 0.166109 3.69172 0.039781 3.49852 0.00790605C3.30531 -0.0240471 3.10879 0.0425155 2.97508 0.185523C2.32512 0.880679 2.14094 1.93146 2.59242 2.83447L4.54371 7.11873L5.80027 4.39045L3.93691 0.344469Z" fill="white"/>
</svg>
