<svg width="19" height="20" viewBox="0 0 19 20" fill="none" xmlns="http://www.w3.org/2000/svg">
<path d="M15.1876 9.26778L9.18059 13.6202C12.1712 15.2716 15.8331 12.7009 15.1876 9.26778Z" fill="white"/>
<path d="M14.0929 7.16668L7.86828 11.6768V12.4748C7.97336 12.6162 8.08742 12.7502 8.20969 12.8768L14.7835 8.1136C14.5991 7.76512 14.3659 7.44637 14.0929 7.16668Z" fill="white"/>
<path d="M7.07844 9.59125V9.72875C7.32453 9.89164 7.52727 10.1147 7.66555 10.3768L13.1179 6.4261C10.5631 5.02883 7.38609 6.69254 7.07844 9.59125Z" fill="white"/>
<path d="M5.4293 6.48836V1.75118C5.4293 1.50922 5.28059 1.29215 5.05496 1.20481L2.04715 0.0399647C1.66469 -0.10816 1.24961 0.173598 1.24961 0.586332V6.48836C1.34711 6.48239 5.34637 6.48329 5.4293 6.48836Z" fill="white"/>
<path d="M5.90641 8.24242C5.90641 7.91883 5.64406 7.65649 5.32047 7.65649H1.35844C1.03484 7.65649 0.7725 7.91883 0.7725 8.24242V9.43739H5.90645L5.90641 8.24242Z" fill="white"/>
<path d="M6.11051 10.6093H0.585938C0.262344 10.6093 0 10.8716 0 11.1952V19.4141C0 19.7377 0.262344 20 0.585938 20H6.11051C6.4341 20 6.69645 19.7377 6.69645 19.4141V11.1952C6.69645 10.8716 6.4341 10.6093 6.11051 10.6093Z" fill="white"/>
<path d="M11.157 4.75383C14.0648 4.75383 16.4304 7.11942 16.4304 10.0272C16.4304 12.7556 14.3472 15.0066 11.6879 15.2735H16.6739C17.9746 13.9064 18.7741 12.0589 18.7741 10.0272C18.7741 5.82723 15.3569 2.41012 11.1569 2.41012C9.44988 2.41012 7.87254 2.97457 6.60105 3.9261V7.04008C6.64285 7.08461 6.68269 7.13149 6.7198 7.18032C7.65891 5.7218 9.2968 4.75383 11.157 4.75383Z" fill="white"/>
<path d="M7.86828 15.2736H10.6326C9.59344 15.1706 8.64176 14.7654 7.86828 14.1463V15.2736Z" fill="white"/>
<path d="M7.86828 19.4141C7.86828 19.6195 7.83273 19.8168 7.7675 20H15.8445C17.4597 20 18.7741 18.6856 18.7741 17.0704V16.4454H7.86828V19.4141Z" fill="white"/>
</svg>
