<svg width="20" height="20" viewBox="0 0 20 20" fill="none" xmlns="http://www.w3.org/2000/svg">
<path d="M12.9297 14.6875H15.2734V17.0312H12.9297V14.6875Z" fill="white"/>
<path d="M4.72656 14.6875H9.41406V17.0312H4.72656V14.6875Z" fill="white"/>
<path d="M0 18.2031C0 19.1724 0.788516 20 1.75781 20H18.2422C19.2115 20 20 19.1724 20 18.2031V5.85938H0V18.2031ZM16.4453 17.6172C16.4453 17.9411 16.1832 18.2031 15.8594 18.2031H12.3438C12.0199 18.2031 11.7578 17.9411 11.7578 17.6172V14.1016C11.7578 13.7777 12.0199 13.5156 12.3438 13.5156H15.8594C16.1832 13.5156 16.4453 13.7777 16.4453 14.1016V17.6172ZM3.55469 8.24219C3.55469 7.91832 3.81676 7.65625 4.14062 7.65625H15.8594C16.1832 7.65625 16.4453 7.91832 16.4453 8.24219V11.7578C16.4453 12.0817 16.1832 12.3438 15.8594 12.3438H4.14062C3.81676 12.3438 3.55469 12.0817 3.55469 11.7578V8.24219ZM3.55469 14.1016C3.55469 13.7777 3.81676 13.5156 4.14062 13.5156H10C10.3239 13.5156 10.5859 13.7777 10.5859 14.1016V17.6172C10.5859 17.9411 10.3239 18.2031 10 18.2031H4.14062C3.81676 18.2031 3.55469 17.9411 3.55469 17.6172V14.1016Z" fill="white"/>
<path d="M4.72656 8.82812H15.2734V11.1719H4.72656V8.82812Z" fill="white"/>
<path d="M18.2422 0H1.75781C0.788516 0 0 0.788516 0 1.75781V4.6875H20V1.75781C20 0.788516 19.2115 0 18.2422 0ZM4.14062 2.92969C3.81703 2.92969 3.55469 2.66734 3.55469 2.34375C3.55469 2.02008 3.81703 1.75781 4.14062 1.75781C4.46422 1.75781 4.72656 2.02008 4.72656 2.34375C4.72656 2.66734 4.46422 2.92969 4.14062 2.92969ZM6.48438 2.92969C6.16078 2.92969 5.89844 2.66734 5.89844 2.34375C5.89844 2.02008 6.16078 1.75781 6.48438 1.75781C6.80797 1.75781 7.07031 2.02008 7.07031 2.34375C7.07031 2.66734 6.80797 2.92969 6.48438 2.92969ZM8.82812 2.92969C8.50453 2.92969 8.24219 2.66734 8.24219 2.34375C8.24219 2.02008 8.50453 1.75781 8.82812 1.75781C9.15172 1.75781 9.41406 2.02008 9.41406 2.34375C9.41406 2.66734 9.15172 2.92969 8.82812 2.92969Z" fill="white"/>
</svg>
