<svg width="17" height="20" viewBox="0 0 17 20" fill="none" xmlns="http://www.w3.org/2000/svg">
<path d="M8.3552 3.51159C6.93502 3.51159 5.58927 3.63061 4.46347 3.85587C4.06718 3.93516 3.75498 4.01721 3.51666 4.09036V11.0695C3.51666 12.6637 4.47441 14.1429 6.01615 14.9298L8.3552 16.1237L10.6942 14.9298C12.236 14.1428 13.1937 12.6637 13.1937 11.0695V4.09036C12.9554 4.01721 12.6432 3.93512 12.2469 3.85587C11.1211 3.63065 9.77535 3.51159 8.3552 3.51159ZM11.7302 7.64754L7.85493 11.8207C7.74463 11.9395 7.59009 12.0073 7.42801 12.008H7.42543C7.26429 12.008 7.11026 11.9417 6.99953 11.8245L4.98378 9.69201C4.7614 9.45675 4.77184 9.08582 5.0071 8.86345C5.24233 8.64108 5.61334 8.65155 5.83563 8.88677L7.42164 10.5647L10.8712 6.84988C11.0916 6.61274 11.4623 6.59891 11.6995 6.81921C11.9367 7.03947 11.9504 7.41036 11.7302 7.64754Z" fill="white"/>
<path d="M14.009 0.664034C11.0314 -0.221345 5.67902 -0.221345 2.70134 0.664034C0.908862 1.17352 0 1.88854 0 2.78923V11.0695C0 13.9919 1.69265 16.6713 4.4174 18.062L8.08875 19.9359C8.25611 20.0213 8.45429 20.0213 8.62168 19.9359L12.293 18.062C15.0177 16.6713 16.7104 13.9919 16.7104 11.0695V2.78923C16.7104 1.88854 15.8015 1.17352 14.009 0.664034ZM14.366 11.0695C14.366 13.1064 13.1633 14.9856 11.2272 15.9739L8.62164 17.3038C8.45429 17.3892 8.25611 17.3892 8.08871 17.3038L5.48318 15.9739C3.5471 14.9856 2.3444 13.1064 2.3444 11.0695V3.67211C2.3444 3.42989 2.49339 3.21264 2.71936 3.12535C3.0037 3.01551 3.4972 2.8537 4.23351 2.70639C6.59863 2.2191 10.1117 2.2191 12.4768 2.70639C13.2132 2.8537 13.7067 3.01551 13.991 3.12535C14.2169 3.2126 14.366 3.42989 14.366 3.67211V11.0695Z" fill="white"/>
</svg>
