<svg width="20" height="20" viewBox="0 0 20 20" fill="none" xmlns="http://www.w3.org/2000/svg">
<path d="M18.4349 1.54175C16.3781 -0.513916 13.0325 -0.513916 10.9757 1.54175L6.62704 5.89042L11.5643 10.8277C12.5805 9.98147 13.8688 9.45163 15.2913 9.45163C16.1073 9.45163 16.8837 9.62112 17.5902 9.92378L18.4349 9.00097C20.4911 6.94472 20.4911 3.59858 18.4349 1.54175Z" fill="white"/>
<path d="M10.7425 11.6632L5.79833 6.71909L1.54216 10.9794C-0.514053 13.0357 -0.514053 16.3818 1.54216 18.4386C3.59892 20.4942 6.98356 20.5334 9.0404 18.4776L9.90321 17.6107C9.60056 16.9042 9.43106 16.1278 9.43106 15.3118C9.4311 13.9258 9.93501 12.6676 10.7425 11.6632Z" fill="white"/>
<path d="M10.6031 15.3119C10.6031 17.7003 12.3958 19.6496 14.7053 19.9409V10.6828C12.3958 10.9741 10.6031 12.9233 10.6031 15.3119Z" fill="white"/>
<path d="M15.8773 10.6828V19.9409C18.1868 19.6496 19.9795 17.7003 19.9795 15.3118C19.9795 12.9233 18.1868 10.9741 15.8773 10.6828Z" fill="white"/>
</svg>
