<svg width="20" height="18" viewBox="0 0 20 18" fill="none" xmlns="http://www.w3.org/2000/svg">
<path d="M9.83283 13.0797C9.48322 13.0797 9.1988 13.3641 9.1988 13.7136C9.1988 14.0632 9.48322 14.3477 9.83283 14.3477C10.1824 14.3477 10.4668 14.0633 10.4668 13.7136C10.4668 13.364 10.1824 13.0797 9.83283 13.0797Z" fill="white"/>
<path d="M9.83282 9.79655C7.67289 9.79655 5.91569 11.5537 5.91569 13.7137C5.91569 15.8736 7.67293 17.6308 9.83282 17.6308C11.9927 17.6308 13.7499 15.8736 13.7499 13.7137C13.7499 11.5537 11.9927 9.79655 9.83282 9.79655ZM9.83282 15.5195C8.83705 15.5195 8.02695 14.7094 8.02695 13.7137C8.02695 12.7179 8.83705 11.9078 9.83282 11.9078C10.8286 11.9078 11.6386 12.7179 11.6386 13.7137C11.6386 14.7094 10.8286 15.5195 9.83282 15.5195Z" fill="white"/>
<path d="M4.07173 7.85431V6.54757C2.72714 7.01495 1.59658 7.94357 0.870611 9.14335H2.78269C3.49346 9.14335 4.07173 8.56508 4.07173 7.85431Z" fill="white"/>
<path d="M7.47379 5.04185H9.13103L4.26083 0.171618C4.03205 -0.0572061 3.66104 -0.0572061 3.43221 0.171618C3.20339 0.400443 3.20339 0.771414 3.43221 1.00024L7.47379 5.04185Z" fill="white"/>
<path d="M19.8284 6.38535C19.7185 6.27543 19.5695 6.21371 19.4141 6.21371H6.05471C5.77968 6.21371 5.50902 6.2325 5.24359 6.2682V7.85431C5.24359 9.21124 4.13962 10.3152 2.78269 10.3152H0.323354C0.113865 10.9282 0 11.5853 0 12.2684V13.6355C0 13.9591 0.26234 14.2214 0.585928 14.2214H4.76911C4.75247 14.0544 4.74383 13.885 4.74383 13.7136C4.74383 10.9076 7.02677 8.62465 9.83282 8.62465C12.6389 8.62465 14.9218 10.9075 14.9218 13.7136C14.9218 13.885 14.9132 14.0543 14.8965 14.2214H19.4133C19.7368 14.2214 19.9991 13.9591 19.9992 13.6356L20 6.79972C20 6.64429 19.9383 6.49523 19.8284 6.38535Z" fill="white"/>
<path d="M19.9997 1.25273C19.9997 0.929145 19.7373 0.666806 19.4138 0.666806H15.4635C15.3082 0.666806 15.1591 0.728563 15.0493 0.838444L10.8458 5.04185H19.9997V1.25273Z" fill="white"/>
</svg>
