<svg width="20" height="20" viewBox="0 0 20 20" fill="none" xmlns="http://www.w3.org/2000/svg">
<path d="M19.9963 9.72311C19.3815 4.40654 15.7923 0.80424 10.3105 0.00595821C9.95957 -0.0450965 9.64981 0.238849 9.64981 0.593458V4.54037C11.1479 4.67483 12.5322 5.32486 13.6114 6.40404C14.6905 7.48322 15.3406 8.87541 15.475 10.3734H19.4063C19.7538 10.3734 20.0361 10.0683 19.9963 9.72311Z" fill="white"/>
<path d="M11.6237 10.4647C11.375 9.441 10.5354 8.60139 9.51172 8.35268C7.335 7.82389 5.41266 9.74615 5.94145 11.923C6.19016 12.9466 7.02977 13.7863 8.05344 14.0349C10.2302 14.5637 12.1525 12.6414 11.6237 10.4647ZM8.78262 12.9516C7.81332 12.9516 7.02481 12.1631 7.02481 11.1938C7.02481 10.2245 7.81332 9.43596 8.78262 9.43596C9.75192 9.43596 10.5404 10.2245 10.5404 11.1938C10.5404 12.1631 9.75192 12.9516 8.78262 12.9516Z" fill="white"/>
<path d="M8.78262 10.6078C8.45934 10.6078 8.19668 10.8705 8.19668 11.1938C8.19668 11.5171 8.45934 11.7797 8.78262 11.7797C9.1059 11.7797 9.36856 11.5171 9.36856 11.1938C9.36856 10.8705 9.1059 10.6078 8.78262 10.6078Z" fill="white"/>
<path d="M14.6357 11.7797C14.3069 11.7797 14.0636 11.5045 14.0624 11.1757C14.0577 9.77651 13.5088 8.46006 12.5158 7.46701C11.5227 6.47397 10.2063 5.92506 8.80711 5.92033C8.47832 5.91928 8.20309 5.67592 8.20309 5.34713V2.4344C3.53184 2.74459 -0.155387 6.70998 0.00504314 11.4942C0.157192 16.0317 3.9511 19.8256 8.48864 19.9778C13.2729 20.1382 17.2382 16.451 17.5484 11.7797H14.6357ZM4.23149 6.63623C4.46032 6.4074 4.83129 6.4074 5.06012 6.63623C5.28899 6.86506 5.28899 7.23604 5.06012 7.46486C4.83129 7.69369 4.46032 7.69369 4.23149 7.46486C4.00266 7.23604 4.0027 6.86506 4.23149 6.63623ZM2.92965 11.7797C2.60606 11.7797 2.34371 11.5174 2.34371 11.1938C2.34371 10.8701 2.60606 10.6078 2.92965 10.6078C3.25325 10.6078 3.51559 10.8701 3.51559 11.1938C3.51559 11.5174 3.25325 11.7797 2.92965 11.7797ZM5.06012 15.7513C4.83129 15.9801 4.46032 15.9801 4.23149 15.7513C4.00266 15.5224 4.00266 15.1514 4.23149 14.9226C4.46032 14.6938 4.83129 14.6938 5.06012 14.9226C5.28899 15.1514 5.28899 15.5224 5.06012 15.7513ZM8.78903 17.6391C8.46543 17.6391 8.20309 17.3767 8.20309 17.0531C8.20309 16.7295 8.46543 16.4672 8.78903 16.4672C9.11262 16.4672 9.37496 16.7295 9.37496 17.0531C9.37496 17.3767 9.11262 17.6391 8.78903 17.6391ZM9.59282 15.2184C6.7084 15.7696 4.21317 13.2744 4.76434 10.39C5.07067 8.7869 6.38219 7.47545 7.9852 7.16912C10.8696 6.61795 13.3648 9.11318 12.8137 11.9975C12.5073 13.6006 11.1959 14.912 9.59282 15.2184ZM13.3466 15.7513C13.1177 15.9801 12.7468 15.9801 12.5179 15.7513C12.2891 15.5224 12.2891 15.1514 12.5179 14.9226C12.7468 14.6938 13.1177 14.6938 13.3466 14.9226C13.5754 15.1514 13.5754 15.5224 13.3466 15.7513Z" fill="white"/>
</svg>
