<svg width="20" height="20" viewBox="0 0 20 20" fill="none" xmlns="http://www.w3.org/2000/svg">
<path d="M0 17.8517C0 19.0363 0.963745 20 2.14828 20H17.8517C19.0363 20 20 19.0363 20 17.8517V5.89844H0V17.8517ZM11.7578 15.8594H8.24219C7.59491 15.8594 7.07031 15.3346 7.07031 14.6875C7.07031 14.0402 7.59491 13.5156 8.24219 13.5156H11.7578C12.4051 13.5156 12.9297 14.0404 12.9297 14.6875C12.9297 15.3348 12.4051 15.8594 11.7578 15.8594ZM6.48438 8.24219H13.5156C13.8393 8.24219 14.1016 8.50449 14.1016 8.82812C14.1016 9.15176 13.8393 9.41406 13.5156 9.41406H6.48438C6.16074 9.41406 5.89844 9.15176 5.89844 8.82812C5.89844 8.50449 6.16074 8.24219 6.48438 8.24219ZM4.14062 10.5859H15.8594C16.183 10.5859 16.4453 10.8482 16.4453 11.1719C16.4453 11.4955 16.183 11.7578 15.8594 11.7578H4.14062C3.81699 11.7578 3.55469 11.4955 3.55469 11.1719C3.55469 10.8482 3.81699 10.5859 4.14062 10.5859Z" fill="white"/>
<path d="M17.8517 0H2.14829C0.963745 0 2.98023e-07 0.963745 2.98023e-07 2.14828V4.72656H20V2.14828C20 0.963745 19.0363 0 17.8517 0ZM12.3438 3.55469C12.0201 3.55469 11.7578 3.29239 11.7578 2.96875C11.7578 2.64511 12.0201 2.38281 12.3438 2.38281C12.6674 2.38281 12.9297 2.64511 12.9297 2.96875C12.9297 3.29239 12.6674 3.55469 12.3438 3.55469ZM14.6875 3.55469C14.3639 3.55469 14.1016 3.29239 14.1016 2.96875C14.1016 2.64511 14.3639 2.38281 14.6875 2.38281C15.0111 2.38281 15.2734 2.64511 15.2734 2.96875C15.2734 3.29239 15.0111 3.55469 14.6875 3.55469ZM17.0312 3.55469C16.7076 3.55469 16.4453 3.29239 16.4453 2.96875C16.4453 2.64511 16.7076 2.38281 17.0312 2.38281C17.3549 2.38281 17.6172 2.64511 17.6172 2.96875C17.6172 3.29239 17.3549 3.55469 17.0312 3.55469Z" fill="white"/>
</svg>
