<svg width="20" height="20" viewBox="0 0 20 20" fill="none" xmlns="http://www.w3.org/2000/svg">
<path d="M14.3791 8.62958H18.052V15.1158H14.3791V8.62958Z" fill="white"/>
<path d="M8.12732 8.62958H11.8002V15.1158H8.12732V8.62958Z" fill="white"/>
<path d="M18.7553 16.288C18.1653 16.288 1.88632 16.288 1.17221 16.288C0.525853 16.288 4.65661e-09 16.8139 4.65661e-09 17.4602V18.8278C4.65661e-09 19.4742 0.525853 20 1.17221 20H18.7553C19.4017 20 19.9276 19.4742 19.9276 18.8278V17.4602C19.9276 16.8139 19.4017 16.288 18.7553 16.288Z" fill="white"/>
<path d="M19.193 3.67993C10.1641 -0.0118687 10.4057 0.0868706 10.3992 0.0842527C10.1206 -0.0272244 9.81084 -0.0294907 9.52428 0.0858938L0.734584 3.67993C0.288246 3.85951 0 4.28611 0 4.76739V6.2852C0 6.93156 0.525853 7.45741 1.17221 7.45741H18.7553C19.4017 7.45741 19.9276 6.93156 19.9276 6.2852V4.76739C19.9276 4.28611 19.6393 3.85951 19.193 3.67993ZM10.5499 4.37055C10.5499 4.69424 10.2875 4.95666 9.96378 4.95666C9.64009 4.95666 9.37767 4.69424 9.37767 4.37055V3.1202C9.37767 2.79651 9.64009 2.53409 9.96378 2.53409C10.2875 2.53409 10.5499 2.79651 10.5499 3.1202V4.37055Z" fill="white"/>
<path d="M1.87554 8.62958H5.54846V15.1158H1.87554V8.62958Z" fill="white"/>
</svg>
