<svg width="20" height="20" viewBox="0 0 20 20" fill="none" xmlns="http://www.w3.org/2000/svg">
<path d="M0 19.4141C0 19.7375 0.2625 20 0.585938 20H3.94531V8.69609H0V19.4141ZM1.38672 10.8445C1.38672 10.523 1.65117 10.2586 1.97266 10.2586C2.29414 10.2586 2.55859 10.523 2.55859 10.8445V11.8641C2.55859 12.1855 2.29414 12.45 1.97266 12.45C1.65117 12.45 1.38672 12.1855 1.38672 11.8641V10.8445ZM1.38672 14.2078C1.38672 13.8863 1.65117 13.6219 1.97266 13.6219C2.29414 13.6219 2.55859 13.8863 2.55859 14.2078V15.2277C2.55859 15.5492 2.29414 15.8137 1.97266 15.8137C1.65117 15.8137 1.38672 15.5492 1.38672 15.2277V14.2078Z" fill="white"/>
<path d="M0 6.15703V7.52422H3.94531V5.57109H0.585938C0.2625 5.57109 0 5.8332 0 6.15703Z" fill="white"/>
<path d="M19.4141 5.57109H16.0547V7.52422H20V6.15703C20 5.8332 19.7375 5.57109 19.4141 5.57109Z" fill="white"/>
<path d="M16.0547 20H19.4141C19.7375 20 20 19.7375 20 19.4141V8.69609H16.0547V20ZM17.4414 10.8445C17.4414 10.523 17.7059 10.2586 18.0273 10.2586C18.3488 10.2586 18.6133 10.523 18.6133 10.8445V11.8641C18.6133 12.1855 18.3488 12.45 18.0273 12.45C17.7059 12.45 17.4414 12.1855 17.4414 11.8641V10.8445ZM17.4414 14.2078C17.4414 13.8863 17.7059 13.6219 18.0273 13.6219C18.3488 13.6219 18.6133 13.8863 18.6133 14.2078V15.2277C18.6133 15.5492 18.3488 15.8137 18.0273 15.8137C17.7059 15.8137 17.4414 15.5492 17.4414 15.2277V14.2078Z" fill="white"/>
<path d="M10.5859 15.3758H11.7578V20H10.5859V15.3758Z" fill="white"/>
<path d="M8.24219 15.3758H9.41406V20H8.24219V15.3758Z" fill="white"/>
<path d="M14.648 0.116797C14.5004 0.00625 14.309 -0.028125 14.132 0.0238281C14.132 0.0238281 10.1051 1.33789 7.46094 2.17773V0.585938C7.46094 0.2625 7.19844 0 6.875 0C6.55156 0 6.28906 0.2625 6.28906 0.585938V2.54648C5.98047 2.64258 5.72422 2.7207 5.53828 2.77539C5.28867 2.84844 5.11719 3.07734 5.11719 3.3375V20H7.07031V14.7898C7.07031 14.466 7.33281 14.2039 7.65625 14.2039H12.3438C12.6672 14.2039 12.9297 14.466 12.9297 14.7898V20H14.8828V0.585938C14.8828 0.401172 14.7957 0.227344 14.648 0.116797ZM8.82812 12.2117H7.65625C7.33281 12.2117 7.07031 11.9492 7.07031 11.6258C7.07031 11.302 7.33281 11.0398 7.65625 11.0398H8.82812C9.15156 11.0398 9.41406 11.302 9.41406 11.6258C9.41406 11.9492 9.15156 12.2117 8.82812 12.2117ZM8.82812 9.86797H7.65625C7.33281 9.86797 7.07031 9.60547 7.07031 9.28203C7.07031 8.9582 7.33281 8.69609 7.65625 8.69609H8.82812C9.15156 8.69609 9.41406 8.9582 9.41406 9.28203C9.41406 9.60547 9.15156 9.86797 8.82812 9.86797ZM8.82812 7.52422H7.65625C7.33281 7.52422 7.07031 7.26172 7.07031 6.93828C7.07031 6.61445 7.33281 6.35234 7.65625 6.35234H8.82812C9.15156 6.35234 9.41406 6.61445 9.41406 6.93828C9.41406 7.26172 9.15156 7.52422 8.82812 7.52422ZM8.82812 5.18047H7.65625C7.33281 5.18047 7.07031 4.91797 7.07031 4.59453C7.07031 4.2707 7.33281 4.00859 7.65625 4.00859H8.82812C9.15156 4.00859 9.41406 4.2707 9.41406 4.59453C9.41406 4.91797 9.15156 5.18047 8.82812 5.18047ZM12.3438 12.2117H11.1719C10.8484 12.2117 10.5859 11.9492 10.5859 11.6258C10.5859 11.302 10.8484 11.0398 11.1719 11.0398H12.3438C12.6672 11.0398 12.9297 11.302 12.9297 11.6258C12.9297 11.9492 12.6672 12.2117 12.3438 12.2117ZM12.3438 9.86797H11.1719C10.8484 9.86797 10.5859 9.60547 10.5859 9.28203C10.5859 8.9582 10.8484 8.69609 11.1719 8.69609H12.3438C12.6672 8.69609 12.9297 8.9582 12.9297 9.28203C12.9297 9.60547 12.6672 9.86797 12.3438 9.86797ZM12.3438 7.52422H11.1719C10.8484 7.52422 10.5859 7.26172 10.5859 6.93828C10.5859 6.61445 10.8484 6.35234 11.1719 6.35234H12.3438C12.6672 6.35234 12.9297 6.61445 12.9297 6.93828C12.9297 7.26172 12.6672 7.52422 12.3438 7.52422ZM12.3438 5.18047H11.1719C10.8484 5.18047 10.5859 4.91797 10.5859 4.59453C10.5859 4.2707 10.8484 4.00859 11.1719 4.00859H12.3438C12.6672 4.00859 12.9297 4.2707 12.9297 4.59453C12.9297 4.91797 12.6672 5.18047 12.3438 5.18047Z" fill="white"/>
</svg>
