<svg width="20" height="20" viewBox="0 0 20 20" fill="none" xmlns="http://www.w3.org/2000/svg">
<path d="M14.4218 10.5685H10.5859V14.4043C11.7714 14.3646 12.9105 14.2046 13.9529 13.9354C14.2221 12.8931 14.382 11.7538 14.4218 10.5685Z" fill="white"/>
<path d="M3.61893 6.95145C2.31979 7.64389 1.50177 8.49579 1.25305 9.39667H4.40582C4.43817 8.37357 4.5546 7.37869 4.7496 6.44058C4.35043 6.59271 3.97217 6.76315 3.61893 6.95145Z" fill="white"/>
<path d="M10.5859 0V0.0341797C11.9247 0.271301 13.1436 1.32126 14.0652 3.05023C14.3939 3.66699 14.6735 4.34998 14.9007 5.08209C15.6328 5.30914 16.3156 5.58868 16.9324 5.91736C18.9105 6.97174 20 8.41553 20 9.9826C20 7.3114 18.9598 4.80026 17.0711 2.91138C15.321 1.1615 13.0367 0.140686 10.5859 0Z" fill="white"/>
<path d="M0 9.9826C0 8.41553 1.08948 6.97174 3.06763 5.91736C3.68439 5.58868 4.36737 5.30914 5.09933 5.08209C5.32654 4.34998 5.60608 3.66684 5.93475 3.05023C6.85638 1.32126 8.07526 0.271302 9.41406 0.03418V2.98023e-07C6.96335 0.140686 4.6788 1.1615 2.92892 2.91138C1.04019 4.80026 0 7.3114 0 9.9826Z" fill="white"/>
<path d="M13.0312 16.3637C13.2195 16.0103 13.3899 15.6317 13.5422 15.2324C12.6038 15.4274 11.6092 15.5444 10.5859 15.5768V18.7296C11.4867 18.4807 12.3387 17.6627 13.0312 16.3637Z" fill="white"/>
<path d="M16.9324 14.0477C16.3156 14.3764 15.6328 14.6559 14.9007 14.8831C14.6735 15.6151 14.3939 16.2982 14.0652 16.915C13.1436 18.6438 11.9247 19.6938 10.5859 19.931V19.9651C13.0367 19.8245 15.321 18.8036 17.0711 17.0537C18.9598 15.1648 20 12.6537 20 9.9826C20 11.5497 18.9105 12.9933 16.9324 14.0477Z" fill="white"/>
<path d="M6.87195 16.1755C6.90369 16.239 6.93604 16.3019 6.96884 16.3637C7.66129 17.6627 8.51318 18.4807 9.41406 18.7296V15.5768C8.83682 15.5585 8.26904 15.5124 7.715 15.4414C7.51358 15.7622 7.22015 16.0191 6.87195 16.1755Z" fill="white"/>
<path d="M8.20404 5.64499C7.45316 5.72449 6.72928 5.85358 6.04721 6.02966C5.77789 7.07214 5.61798 8.21121 5.57831 9.39667H9.41406V6.79382C8.85727 6.61499 8.41064 6.18866 8.20404 5.64499Z" fill="white"/>
<path d="M9.41406 19.9651V19.9309C8.07526 19.6938 6.85638 18.6438 5.93475 16.9148C5.82718 16.713 5.7254 16.5033 5.62836 16.2877C4.83185 16.0916 4.22974 15.3975 4.17191 14.5557C3.78494 14.4022 3.41537 14.2331 3.06763 14.0477C1.08948 12.9933 0 11.5497 0 9.9826C0 12.6537 1.04019 15.1648 2.92892 17.0537C4.6788 18.8036 6.96335 19.8244 9.41406 19.9651Z" fill="white"/>
<path d="M13.9529 6.02966C13.2707 5.85358 12.5468 5.72449 11.796 5.64499C11.5894 6.18866 11.1427 6.61499 10.5859 6.79382V9.39667H14.4218C14.382 8.21121 14.2221 7.07214 13.9529 6.02966Z" fill="white"/>
<path d="M5.75974 12.5305C5.86639 12.5121 5.9758 12.502 6.08765 12.502C7.10464 12.502 7.93915 13.2967 8.004 14.2976C8.46436 14.3523 8.93524 14.3883 9.41406 14.4043V10.5685H5.57831C5.60074 11.2404 5.66193 11.8974 5.75974 12.5305Z" fill="white"/>
<path d="M11.8571 4.47418C12.4341 4.53354 12.9977 4.61945 13.5422 4.73267C13.3899 4.33334 13.2195 3.95477 13.031 3.60138C12.3387 2.3024 11.4867 1.48438 10.5859 1.2355V3.13553C11.2061 3.33466 11.6898 3.84079 11.8571 4.47418Z" fill="white"/>
<path d="M16.3811 13.0136C17.016 12.6753 17.5356 12.2987 17.9303 11.8971C17.141 11.8362 16.4838 11.2965 16.25 10.5685H15.5942C15.5618 11.5915 15.4454 12.5864 15.2504 13.5245C15.6496 13.3723 16.0278 13.2019 16.3811 13.0136Z" fill="white"/>
<path d="M1.25305 10.5685C1.50177 11.4693 2.31979 12.3212 3.61893 13.0136C3.88473 13.1554 4.16489 13.287 4.45755 13.4084C4.52057 13.3075 4.59244 13.2127 4.67239 13.1255C4.52393 12.3059 4.43359 11.4478 4.40582 10.5685H1.25305Z" fill="white"/>
<path d="M6.96884 3.60138C6.78055 3.95477 6.61011 4.33334 6.45782 4.73267C7.00226 4.6196 7.56592 4.53354 8.14285 4.47418C8.31024 3.84079 8.79395 3.33466 9.41406 3.13553V1.2355C8.51334 1.48438 7.66128 2.3024 6.96884 3.60138Z" fill="white"/>
<path d="M16.25 9.39667C16.4838 8.66852 17.141 8.12881 17.9303 8.06793C17.5356 7.66632 17.016 7.28973 16.3811 6.95145C16.0278 6.76315 15.6496 6.59271 15.2504 6.44058C15.4454 7.37869 15.5618 8.37341 15.5942 9.39651L16.25 9.39667Z" fill="white"/>
<path d="M9.99969 5.71732C9.58832 5.71732 9.25354 5.38269 9.25354 4.97116C9.25354 4.55963 9.58832 4.22485 9.99969 4.22485C10.4112 4.22485 10.746 4.55963 10.746 4.97116C10.746 5.38269 10.4112 5.71732 9.99969 5.71732Z" fill="white"/>
<path d="M6.04752 15.1506C5.63599 15.1506 5.30121 14.8158 5.30121 14.4043C5.30121 13.9929 5.63599 13.6581 6.04752 13.6581C6.45904 13.6581 6.79382 13.9928 6.79382 14.4043C6.79382 14.8158 6.45904 15.1506 6.04752 15.1506Z" fill="white"/>
<path d="M18.0475 10.7678C17.636 10.7678 17.3013 10.433 17.3013 10.0217C17.3013 9.61014 17.6361 9.27536 18.0475 9.27536C18.459 9.27536 18.7938 9.61014 18.7938 10.0217C18.7936 10.433 18.459 10.7678 18.0475 10.7678Z" fill="white"/>
</svg>
