<svg width="20" height="15" viewBox="0 0 20 15" fill="none" xmlns="http://www.w3.org/2000/svg">
<path d="M19.8853 4.37996C19.7875 4.26064 19.6416 4.19099 19.4884 4.19099H17.542C17.0616 2.92403 16.4358 1.68267 15.7245 1.21409C13.2639 -0.404696 6.73719 -0.404696 4.27656 1.21409C3.56474 1.68318 2.94152 2.92608 2.45861 4.19099H0.512125C0.357472 4.19099 0.212036 4.26064 0.115249 4.37996C0.0179503 4.49877 -0.0209692 4.65599 0.0107809 4.80706L0.299092 6.2041C0.348254 6.44223 0.558214 6.61225 0.800436 6.61225H1.37706C0.820408 7.25444 0.550533 8.06307 0.546948 8.8722C0.543363 9.87184 0.922828 10.7752 1.61672 11.4143C1.6244 11.421 1.63208 11.4256 1.63925 11.4322V13.387C1.63925 13.8105 1.98338 14.1551 2.4074 14.1551H4.20282C4.62683 14.1551 4.97096 13.8105 4.97096 13.387V12.6014H15.0291V13.387C15.0291 13.8105 15.3732 14.1551 15.7972 14.1551H17.5927C18.0156 14.1551 18.3608 13.8105 18.3608 13.387V11.4707C19.0972 10.7962 19.449 9.86826 19.4536 8.94185C19.4567 8.10506 19.1745 7.26673 18.5851 6.61123H19.2001C19.4434 6.61123 19.6533 6.44121 19.7015 6.20257L19.9903 4.80604C20.02 4.65599 19.9826 4.4998 19.8853 4.37996ZM5.11999 2.49693C7.08132 1.20589 12.9187 1.20589 14.879 2.49693C15.26 2.74684 15.7501 3.75723 16.1992 4.99449H3.80082C4.24891 3.75775 4.73899 2.74786 5.11999 2.49693ZM2.82271 9.06476C2.82271 8.23001 3.49971 7.55403 4.33392 7.55403C5.16915 7.55403 5.84512 8.23001 5.84512 9.06476C5.84512 9.8995 5.16915 10.576 4.33392 10.576C3.49971 10.576 2.82271 9.8995 2.82271 9.06476ZM15.6861 10.576C14.8519 10.576 14.1749 9.8995 14.1749 9.06476C14.1749 8.23001 14.8519 7.55403 15.6861 7.55403C16.5213 7.55403 17.1973 8.23001 17.1973 9.06476C17.1973 9.8995 16.5203 10.576 15.6861 10.576Z" fill="white"/>
</svg>
