<svg width="20" height="20" viewBox="0 0 20 20" fill="none" xmlns="http://www.w3.org/2000/svg">
<path d="M0.586112 13.7239C1.55215 13.7239 2.28365 13.4557 2.82534 13.0614L3.32812 10.5475C3.51 9.63882 3.92504 8.82339 4.50289 8.15887H4.03109C2.25588 8.15887 0.719169 9.42291 0.377067 11.1644C0.185111 12.14 0.0111613 13.025 0.0111613 13.025C-0.0599446 13.3871 0.217765 13.7239 0.586112 13.7239Z" fill="white"/>
<path d="M3.47963 15.7657C4.09014 16.1766 4.74154 16.5263 5.42971 16.8115C5.80782 16.9681 6.19188 17.1022 6.58083 17.2156C6.60234 17.1281 6.62432 17.0387 6.64675 16.9476C6.97634 15.605 8.24175 14.2328 10.1364 14.2789L10.141 14.279C11.6361 14.317 12.9364 15.3554 13.3038 16.8053L13.4085 17.2186C13.8011 17.1048 14.189 16.9694 14.5705 16.8115C15.3487 16.4891 16.0797 16.084 16.7578 15.6012L15.2719 6.6864L15.5481 6.96243C16.2981 7.71255 17.5107 7.71118 18.2594 6.96243C19.007 6.2149 19.007 4.99862 18.2594 4.25094L16.862 2.85354V0.585937C16.862 0.262298 16.5997 0 16.2761 0H15.6062C12.5049 0 10.0002 2.51068 10.0002 5.60608V7.53128H8.43691C6.51888 7.53128 4.85369 8.89633 4.47725 10.7773L3.47963 15.7657Z" fill="white"/>
<path d="M19.8285 15.2341C19.5996 15.0053 19.2287 15.0053 18.9998 15.2341C17.8545 16.3794 16.5152 17.2743 15.0189 17.8941C13.5228 18.5139 11.9429 18.8281 10.3233 18.8281H9.67684C8.05727 18.8281 6.47753 18.5139 4.98125 17.8941C3.48513 17.2743 2.14571 16.3794 1.00054 15.2341C0.771659 15.0053 0.400718 15.0053 0.171836 15.2341C-0.0570455 15.4629 -0.0570455 15.8339 0.171836 16.0628C1.42641 17.3175 2.8937 18.2979 4.5328 18.9769C6.17189 19.6558 7.9027 20 9.67684 20H10.3233C12.0976 20 13.8283 19.6558 15.4674 18.9767C17.1065 18.2979 18.5738 17.3173 19.8285 16.0628C20.0572 15.8339 20.0572 15.4629 19.8285 15.2341Z" fill="white"/>
</svg>
