<svg width="20" height="20" viewBox="0 0 20 20" fill="none" xmlns="http://www.w3.org/2000/svg">
<path d="M5.2715 8.03363L6.82357 9.58566L9.58572 6.82351L8.03369 5.27148C8.46154 3.83668 8.07615 2.27562 7.00181 1.20128C5.89545 0.0949174 4.28373 -0.282348 2.79564 0.216636C2.61545 0.277066 2.47576 0.421128 2.42091 0.603121C2.36607 0.785074 2.40291 0.982378 2.5197 1.1323L4.14978 3.2246L3.22463 4.1498L1.13232 2.51964C0.982399 2.40281 0.785094 2.36601 0.60318 2.42085C0.421188 2.4757 0.277125 2.61535 0.216695 2.79558C-0.282367 4.28371 0.0948986 5.89539 1.2013 7.00175C2.27564 8.07609 3.8367 8.46152 5.2715 8.03363Z" fill="white"/>
<path d="M14.7285 11.9664L13.1765 10.4143L10.4143 13.1764L11.9664 14.7285C11.5385 16.1633 11.9239 17.7243 12.9983 18.7987C13.7817 19.5822 14.8184 20 15.8854 20C16.3251 20 16.7701 19.929 17.2044 19.7833C17.3846 19.7229 17.5243 19.5788 17.5792 19.3968C17.634 19.2148 17.5972 19.0176 17.4804 18.8677L15.8503 16.7754L16.7754 15.8502L18.8677 17.4803C19.0176 17.597 19.2149 17.6338 19.3969 17.5791C19.5789 17.5242 19.7229 17.3846 19.7834 17.2043C20.2824 15.7162 19.9052 14.1045 18.7988 12.9982C17.7244 11.9239 16.1634 11.5386 14.7285 11.9664Z" fill="white"/>
<path d="M5.40489 12.6616C5.17606 12.4328 4.80509 12.4328 4.57626 12.6616L0.571143 16.6667C-0.190381 17.4282 -0.190381 18.6673 0.571143 19.4289C1.33267 20.1904 2.57177 20.1904 3.33329 19.4289L7.33841 15.4237C7.56724 15.1949 7.56724 14.8239 7.33841 14.5951L5.40489 12.6616Z" fill="white"/>
<path d="M15.457 9.51488C15.7152 9.77308 16.0586 9.91535 16.4238 9.91535C16.789 9.91535 17.1323 9.77308 17.3905 9.51488L19.6002 7.30516C20.1333 6.77211 20.1333 5.90473 19.6002 5.37168L14.6284 0.399805C14.0953 -0.133242 13.228 -0.133242 12.6949 0.399805L10.4852 2.60953C9.95212 3.14258 9.95212 4.00996 10.4852 4.54301L15.457 9.51488Z" fill="white"/>
<path d="M11.1757 6.89082L6.23353 11.833L8.167 13.7665L13.1092 8.8243L11.1757 6.89082Z" fill="white"/>
</svg>
