<svg width="20" height="20" viewBox="0 0 20 20" fill="none" xmlns="http://www.w3.org/2000/svg">
<path d="M0.308227 4.86724L6.69646 8.30702L10.9851 4.01839L4.1777 2.41638C2.62344 2.05032 0.984037 2.69729 0.098419 4.02572C0.0343322 4.12231 0 4.23522 0 4.35119C0 4.56634 0.118408 4.76485 0.308227 4.86724Z" fill="white"/>
<path d="M15.9813 9.01488L11.6929 13.3035L15.1324 19.6917C15.2348 19.8816 15.4332 20 15.6485 20C15.7644 20 15.8773 19.9656 15.9738 19.9015C17.3024 19.0159 17.9492 17.3765 17.5831 15.8223L15.9813 9.01488Z" fill="white"/>
<path d="M18.1588 0C17.193 0 16.2848 0.376128 15.6019 1.05911L4.10888 12.552H1.84052C0.825655 12.552 3.8743e-06 13.3777 3.8743e-06 14.3933C3.8743e-06 14.599 0.108036 14.7897 0.28458 14.8956L3.29696 16.7032L5.10436 19.7155C5.21026 19.8919 5.40099 20 5.60683 20C6.63528 20 7.44796 19.1648 7.44796 18.1588V15.8912L18.9409 4.39818C19.6238 3.71505 20 2.807 20 1.84051C20 0.825651 19.1743 0 18.1588 0Z" fill="white"/>
</svg>
