<svg width="20" height="20" viewBox="0 0 20 20" fill="none" xmlns="http://www.w3.org/2000/svg">
<path d="M11.7578 10C11.7578 9.03071 10.9693 8.2422 10 8.2422C9.03071 8.2422 8.24219 9.03071 8.24219 10C8.24219 10.9693 9.03071 11.7578 10 11.7578C10.9693 11.7578 11.7578 10.9693 11.7578 10ZM9.41407 10C9.41407 9.67641 9.67641 9.41407 10 9.41407C10.3236 9.41407 10.5859 9.67641 10.5859 10C10.5859 10.3236 10.3236 10.5859 10 10.5859C9.67641 10.5859 9.41407 10.3236 9.41407 10Z" fill="white"/>
<path d="M0.0761359 12.9468C0.153948 13.0836 0.282698 13.1832 0.434339 13.2238C0.802855 13.3138 1.0775 13.4243 1.54383 13.4578C1.33813 13.8845 1.29649 14.1777 1.192 14.535C1.10094 14.8464 1.29336 15.177 1.60848 15.2541C1.95981 15.3402 2.25172 15.4545 2.71742 15.488C2.50871 15.9154 2.46938 16.2046 2.36379 16.5649C2.32317 16.7165 2.36836 16.8836 2.44735 17.0192C2.52629 17.1543 2.68024 17.2584 2.83188 17.2973C3.06004 17.3557 3.28934 17.3913 3.51793 17.4063C4.37508 17.4624 5.30141 16.9719 5.73086 16.228L8.06594 12.1833C7.59973 11.7699 7.25863 11.2191 7.12961 10.5859H2.35664C1.46 10.5859 0.6243 11.0884 0.243987 11.9004C0.154925 12.0906 0.0804718 12.2896 0.0223468 12.4971C-0.0205828 12.6482 -0.00112973 12.8101 0.0761359 12.9468Z" fill="white"/>
<path d="M0.0772687 7.05087C-0.000543796 7.18649 -0.0148407 7.37071 0.0263312 7.52122C0.0794562 7.71489 0.146917 7.90138 0.226956 8.08013C0.59637 8.90552 1.44367 9.41407 2.34797 9.41407H7.12957C7.25883 8.78001 7.60078 8.22845 8.06813 7.81481L5.725 3.75618C5.27633 2.97907 4.29922 2.50591 3.40532 2.58395C3.19719 2.60212 2.9886 2.63724 2.78098 2.69067C2.62821 2.72845 2.49774 2.8263 2.41821 2.96134C2.33809 3.09696 2.31637 3.25833 2.357 3.40993C2.44762 3.72063 2.50149 4.05958 2.70832 4.48852C2.23641 4.52388 1.9566 4.63552 1.59938 4.72255C1.28696 4.8061 1.10157 5.12708 1.18512 5.4395C1.28864 5.79454 1.33082 6.09173 1.53645 6.5181C1.05707 6.55399 0.761683 6.67102 0.426956 6.7527C0.276409 6.79337 0.154534 6.91583 0.0772687 7.05087Z" fill="white"/>
<path d="M9.59086 0.17165C9.33508 0.439658 9.09797 0.625205 8.83324 1.01853C8.56602 0.621494 8.33235 0.440596 8.07563 0.17165C7.96574 0.0617676 7.79981 0.0171582 7.64477 0.0171582H7.64246C7.48625 0.0177441 7.31973 0.0978222 7.20989 0.208838C7.05266 0.367783 6.91211 0.537588 6.78766 0.716025C6.28949 1.43005 6.30914 2.42407 6.74453 3.1781L9.08457 7.23122C9.37434 7.13501 9.67836 7.07028 9.99996 7.07028C10.3246 7.07028 10.6316 7.13595 10.9237 7.23388L13.2572 3.19212C13.6875 2.44669 13.7051 1.47063 13.2311 0.75208C13.0959 0.54708 12.9401 0.352627 12.7631 0.17165C12.5343 -0.0572168 12.1634 -0.0572168 11.9346 0.17165C11.6788 0.439658 11.4417 0.625205 11.177 1.01853C10.9097 0.621494 10.6761 0.440596 10.4193 0.17165C10.1905 -0.0572168 9.81977 -0.0572168 9.59086 0.17165Z" fill="white"/>
<path d="M17.5532 2.98247C17.4748 2.84743 17.3221 2.74329 17.1716 2.70325C16.9558 2.64696 16.7388 2.6104 16.5225 2.59204C15.6555 2.51829 14.7134 3.01411 14.2784 3.76763L11.9385 7.8204C12.4024 8.23345 12.7418 8.78294 12.8704 9.41407H17.6402C18.538 9.41407 19.3725 8.90962 19.7544 8.097C19.846 7.90204 19.9226 7.69755 19.9823 7.48403C20.0601 7.17392 19.8747 6.8586 19.5657 6.77622C19.1972 6.68626 18.9225 6.57575 18.4562 6.5422C18.6619 6.11556 18.7036 5.82227 18.8081 5.46501C18.8991 5.1536 18.7067 4.82306 18.3916 4.74591C18.0402 4.65985 17.7483 4.54556 17.2826 4.512C17.4913 4.08458 17.5307 3.7954 17.6363 3.43513C17.6768 3.28403 17.6316 3.11751 17.5532 2.98247Z" fill="white"/>
<path d="M19.9096 12.8999C19.9874 12.7643 20.0006 12.5789 19.9582 12.4284C19.8977 12.212 19.818 12.0047 19.7216 11.8072C19.3449 11.0353 18.5159 10.5859 17.6569 10.5859H12.8704C12.7427 11.2124 12.4076 11.7588 11.9491 12.1709L14.2499 16.1904C14.6817 16.9448 15.6206 17.4337 16.4879 17.3765C16.7297 17.3606 16.9697 17.3225 17.2053 17.2618C17.3581 17.2241 17.4886 17.1262 17.5687 16.9906C17.6482 16.8556 17.67 16.6936 17.6293 16.542C17.5329 16.2121 17.4839 15.8922 17.2774 15.464C17.7526 15.4284 18.034 15.3155 18.3869 15.2294C18.5374 15.1893 18.665 15.0909 18.7428 14.9565C18.8206 14.8214 18.8413 14.6618 18.8012 14.5113C18.6967 14.1536 18.6511 13.8502 18.4493 13.4344C18.9244 13.3989 19.2059 13.2859 19.5588 13.1998C19.7105 13.1592 19.8323 13.0361 19.9096 12.8999Z" fill="white"/>
<path d="M6.77828 19.2432C6.91367 19.4489 7.06969 19.644 7.24715 19.8255C7.47602 20.0543 7.84684 20.0543 8.07571 19.8255C8.33149 19.5575 8.5686 19.3719 8.83332 18.9786C9.10055 19.3756 9.33422 19.5565 9.59094 19.8255C9.70539 19.9399 9.85531 19.9972 10.0052 19.9972C10.1551 19.9972 10.305 19.9399 10.4195 19.8255C10.6752 19.5575 10.9123 19.3719 11.1771 18.9786C11.4443 19.3756 11.678 19.5565 11.9347 19.8255C12.0446 19.9354 12.2099 19.98 12.365 19.98L12.3696 19.9794C12.5258 19.9788 12.6929 19.8975 12.8021 19.786C12.9647 19.6197 13.1086 19.4406 13.2346 19.2513C13.7081 18.5399 13.6863 17.5653 13.2617 16.8237L10.9367 12.7621C10.641 12.8628 10.3295 12.9297 10 12.9297C9.67746 12.9297 9.37246 12.8647 9.08196 12.7679L6.75317 16.8016C6.32301 17.5466 6.30535 18.5246 6.77828 19.2432Z" fill="white"/>
</svg>
