<svg width="20" height="16" viewBox="0 0 20 16" fill="none" xmlns="http://www.w3.org/2000/svg">
<path d="M17.0704 0H16.0427C13.4608 0 11.1408 1.46299 10 3.68098C8.85917 1.46302 6.53918 0 3.95732 0H2.92961C2.60574 0 2.34367 0.262073 2.34367 0.585944V2.41847C5.9423 2.70964 8.62026 3.82497 10.0029 4.48728C11.785 3.64528 14.3602 2.68519 17.6563 2.42022V0.585944C17.6563 0.262073 17.3943 0 17.0704 0Z" fill="white"/>
<path d="M0.132623 3.73024C0.0216065 3.86587 -0.0230034 4.04438 0.0113329 4.21661L2.35511 14.7636C2.39745 14.9753 2.55308 15.147 2.75965 15.2094C2.9668 15.274 3.19168 15.2151 3.34387 15.0629C3.97958 14.4272 4.89873 14.0627 5.83488 14.0627C6.41106 14.0627 6.62395 14.1279 8.3835 14.723L9.41406 15.0695V5.50784C7.65552 4.67662 4.6699 3.51567 0.585832 3.51567C0.410166 3.51567 0.244226 3.59465 0.132623 3.73024Z" fill="white"/>
<path d="M19.8674 3.73024C19.7558 3.59461 19.5899 3.51567 19.4142 3.51567C15.3614 3.51567 12.3042 4.70123 10.5859 5.50862V15.0699L11.5656 14.7413C13.4361 14.1107 13.5918 14.0627 14.2023 14.0627C15.1013 14.0627 16.0204 14.4272 16.6561 15.0629C16.8115 15.2182 17.038 15.2713 17.2403 15.2094C17.4469 15.147 17.6025 14.9753 17.6449 14.7636L19.9886 4.21661C20.023 4.04438 19.9784 3.86587 19.8674 3.73024Z" fill="white"/>
</svg>
