<svg width="20" height="20" viewBox="0 0 20 20" fill="none" xmlns="http://www.w3.org/2000/svg">
<path d="M19.4141 3.51562H17.6562V17.6562C17.6562 18.3375 17.9516 18.9465 18.4184 19.3729C18.651 19.5853 19.0061 19.5847 19.2386 19.3722C19.705 18.9459 20 18.3372 20 17.6562V4.10156C20 3.7777 19.7379 3.51562 19.4141 3.51562Z" fill="white"/>
<path d="M7.03125 10.5469H3.51562V14.0625H7.03125V10.5469Z" fill="white"/>
<path d="M12.8906 3.51562H3.51562V7.03125H12.8906V3.51562Z" fill="white"/>
<path d="M16.4062 17.6562C16.4062 -4.91727 16.4062 5.93645 16.4062 0.585938C16.4062 0.26207 16.1442 0 15.8203 0H0.585937C0.26207 0 0 0.26207 0 0.585938V17.0703C0 18.6857 1.31434 20 2.92969 20H17.3206C16.7584 19.3766 16.4062 18.5599 16.4062 17.6562ZM2.34375 9.96094C2.34375 9.63707 2.60582 9.375 2.92969 9.375H7.61719C7.94105 9.375 8.20312 9.63707 8.20312 9.96094V14.6484C8.20312 14.9723 7.94105 15.2344 7.61719 15.2344H2.92969C2.60582 15.2344 2.34375 14.9723 2.34375 14.6484V9.96094ZM13.4766 17.6562H2.92969C2.1573 17.6562 2.15414 16.4844 2.92969 16.4844H13.4766C14.2489 16.4844 14.2521 17.6562 13.4766 17.6562ZM13.4766 15.2344H9.96094C9.18855 15.2344 9.18539 14.0625 9.96094 14.0625H13.4766C14.2489 14.0625 14.2521 15.2344 13.4766 15.2344ZM13.4766 12.8906H9.96094C9.18855 12.8906 9.18539 11.7188 9.96094 11.7188H13.4766C14.2489 11.7188 14.2521 12.8906 13.4766 12.8906ZM13.4766 10.5469H9.96094C9.18855 10.5469 9.18539 9.375 9.96094 9.375H13.4766C14.2489 9.375 14.2521 10.5469 13.4766 10.5469ZM14.0625 7.61719C14.0625 7.94105 13.8004 8.20312 13.4766 8.20312H2.92969C2.60582 8.20312 2.34375 7.94105 2.34375 7.61719V2.92969C2.34375 2.60582 2.60582 2.34375 2.92969 2.34375H13.4766C13.8004 2.34375 14.0625 2.60582 14.0625 2.92969V7.61719Z" fill="white"/>
</svg>
