<svg width="20" height="17" viewBox="0 0 20 17" fill="none" xmlns="http://www.w3.org/2000/svg">
<path d="M18.125 4.6875H17.4609C16.4254 4.6875 15.5859 5.52695 15.5859 6.5625V8.08594C15.5859 8.62527 15.1487 9.0625 14.6094 9.0625H5.39062C4.85129 9.0625 4.41406 8.62527 4.41406 8.08594V6.5625C4.41406 5.52695 3.57461 4.6875 2.53906 4.6875H1.875C0.839453 4.6875 0 5.52695 0 6.5625V8.71094C0 10.9579 1.40555 12.8764 3.38527 13.6359L2.8741 15.425C2.7852 15.7361 2.96535 16.0605 3.27652 16.1493C3.58836 16.2385 3.91219 16.0573 4.00086 15.7469L4.5198 13.9305C4.76598 13.9658 5.0175 13.9844 5.2734 13.9844H14.7265C14.9824 13.9844 15.2339 13.9658 15.4801 13.9305L15.9991 15.7469C16.0726 16.0043 16.3072 16.172 16.5622 16.172C16.9521 16.172 17.2326 15.7985 17.1259 15.425L16.6147 13.6359C18.5945 12.8764 20 10.9579 20 8.71094V6.5625C20 5.52695 19.1605 4.6875 18.125 4.6875Z" fill="white"/>
<path d="M5.58594 6.5625V7.89062H14.4141V6.5625C14.4141 4.88246 15.7809 3.51562 17.4609 3.51562H18.0808C17.9789 1.55984 16.3557 0 14.375 0H5.625C3.6443 0 2.02109 1.55984 1.91918 3.51562H2.53906C4.2191 3.51562 5.58594 4.88242 5.58594 6.5625ZM13.125 3.12508C13.4486 3.12508 13.7109 3.38742 13.7109 3.71102C13.7109 4.03461 13.4486 4.29695 13.125 4.29695C12.8014 4.29695 12.5391 4.03461 12.5391 3.71102C12.5391 3.38742 12.8014 3.12508 13.125 3.12508ZM10 3.12508C10.3236 3.12508 10.5859 3.38742 10.5859 3.71102C10.5859 4.03461 10.3236 4.29695 10 4.29695C9.6764 4.29695 9.41406 4.03461 9.41406 3.71102C9.41406 3.38742 9.6764 3.12508 10 3.12508ZM6.875 3.12508C7.19859 3.12508 7.46094 3.38742 7.46094 3.71102C7.46094 4.03461 7.19859 4.29695 6.875 4.29695C6.55141 4.29695 6.28906 4.03461 6.28906 3.71102C6.28906 3.38742 6.55141 3.12508 6.875 3.12508Z" fill="white"/>
</svg>
