<svg width="20" height="17" viewBox="0 0 20 17" fill="none" xmlns="http://www.w3.org/2000/svg">
<path d="M10 13.125C11.7475 13.125 13.1641 11.7084 13.1641 9.96094C13.1641 8.21347 11.7475 6.79688 10 6.79688C8.25254 6.79688 6.83594 8.21347 6.83594 9.96094C6.83594 11.7084 8.25254 13.125 10 13.125Z" fill="white"/>
<path d="M14.621 1.95312L14.4187 0.94207C14.3096 0.396211 13.8263 0 13.2696 0H6.73035C6.17371 0 5.69039 0.396211 5.58125 0.94207L5.37902 1.95312H14.621Z" fill="white"/>
<path d="M18.2422 3.125C16.8663 3.125 2.40172 3.125 1.75781 3.125C0.788555 3.125 0 3.91355 0 4.88281V15.0391C0 16.0083 0.788555 16.7969 1.75781 16.7969H18.2422C19.2114 16.7969 20 16.0083 20 15.0391V4.88281C20 3.91355 19.2114 3.125 18.2422 3.125ZM5 6.79688H3.125C2.80141 6.79688 2.53906 6.53453 2.53906 6.21094C2.53906 5.88734 2.80141 5.625 3.125 5.625H5C5.32359 5.625 5.58594 5.88734 5.58594 6.21094C5.58594 6.53453 5.32359 6.79688 5 6.79688ZM10 14.2969C7.60914 14.2969 5.66406 12.3518 5.66406 9.96094C5.66406 7.57008 7.60914 5.625 10 5.625C12.3909 5.625 14.3359 7.57008 14.3359 9.96094C14.3359 12.3518 12.3909 14.2969 10 14.2969Z" fill="white"/>
</svg>
