<svg width="20" height="20" viewBox="0 0 20 20" fill="none" xmlns="http://www.w3.org/2000/svg">
<path d="M13.138 20H6.86199C6.5384 20 6.27605 19.7377 6.27605 19.4141V13.7239H0.585938C0.262344 13.7239 0 13.4616 0 13.138V6.86199C0 6.5384 0.262344 6.27605 0.585938 6.27605H6.27605V0.585938C6.27605 0.262344 6.5384 0 6.86199 0H13.138C13.4616 0 13.7239 0.262344 13.7239 0.585938V6.27605H19.4141C19.7377 6.27605 20 6.5384 20 6.86199V13.138C20 13.4616 19.7377 13.7239 19.4141 13.7239H13.7239V19.4141C13.7239 19.7377 13.4616 20 13.138 20Z" fill="white"/>
</svg>
