<svg width="20" height="20" viewBox="0 0 20 20" fill="none" xmlns="http://www.w3.org/2000/svg">
<path d="M15.6679 3.36191C15.6679 3.14617 15.493 2.97129 15.2772 2.97129H10.5859V9.22851H15.6679V3.36191Z" fill="white"/>
<path d="M9.41406 2.97129H4.72277C4.50703 2.97129 4.33215 3.14617 4.33215 3.36191V6.61562L6.21219 4.73504C6.44098 4.50617 6.81199 4.50613 7.04082 4.73492C7.26969 4.96371 7.26973 5.33473 7.04094 5.56355L4.33215 8.27312V9.22851H9.41406V2.97129ZM8.22969 7.57504L7.72863 8.07629C7.61422 8.19074 7.46422 8.24797 7.31426 8.24797C7.16434 8.24797 7.01441 8.19078 6.9 8.07641C6.67113 7.84766 6.67105 7.47664 6.89984 7.24777L7.4009 6.74652C7.62961 6.51766 8.00066 6.51758 8.22953 6.74637C8.4584 6.97519 8.45848 7.34621 8.22969 7.57504Z" fill="white"/>
<path d="M9.41406 10.4004H4.33215V14.8998H9.41406V10.4004Z" fill="white"/>
<path d="M15.6679 10.4004H10.5859V14.8998H15.6679V10.4004Z" fill="white"/>
<path d="M3.16027 2.97129C3.16027 2.32406 3.68496 1.79941 4.33215 1.79941H15.6678C16.315 1.79941 16.8397 2.32406 16.8397 2.97129V14.8998H18.5991V0.78125C18.5991 0.349766 18.2493 0 17.8178 0H2.18215C1.75066 0 1.4009 0.349766 1.4009 0.78125V14.8998H3.16027V2.97129Z" fill="white"/>
<path d="M19.4141 16.0717H0.585938C0.262344 16.0717 0 16.334 0 16.6576V16.6797C0 18.5105 1.48949 20 3.32031 20H16.6797C18.5105 20 20 18.5105 20 16.6797V16.6576C20 16.334 19.7377 16.0717 19.4141 16.0717Z" fill="white"/>
</svg>
