<svg width="20" height="20" viewBox="0 0 20 20" fill="none" xmlns="http://www.w3.org/2000/svg">
<path d="M17.3434 5.46874H2.65655C2.33306 5.46874 2.07061 5.73104 2.07061 6.05468C2.07061 6.37831 2.33306 6.64061 2.65655 6.64061H2.96874V19.4329C2.96874 19.7461 3.23104 20 3.55468 20H8.24217V15.4297C8.24217 15.1062 8.50447 14.8437 8.82811 14.8437H11.1719C11.4955 14.8437 11.7578 15.1062 11.7578 15.4297V20H16.4453C16.7689 20 17.0312 19.7461 17.0312 19.4329V6.64061H17.3433C17.6669 6.64061 17.9292 6.37831 17.9292 6.05468C17.9292 5.73104 17.6669 5.46874 17.3434 5.46874ZM6.48436 16.0156H5.89843C5.57479 16.0156 5.31249 15.7533 5.31249 15.4297C5.31249 15.1062 5.57479 14.8437 5.89843 14.8437H6.48436C6.808 14.8437 7.0703 15.1062 7.0703 15.4297C7.0703 15.7533 6.808 16.0156 6.48436 16.0156ZM7.0703 13.6718H5.89843C5.57479 13.6718 5.31249 13.4095 5.31249 13.0859C5.31249 12.7624 5.57479 12.5 5.89843 12.5H7.0703C7.39394 12.5 7.65624 12.7624 7.65624 13.0859C7.65624 13.4095 7.39394 13.6718 7.0703 13.6718ZM7.0703 11.3283H5.89843C5.57479 11.3283 5.31249 11.0658 5.31249 10.7423C5.31249 10.4187 5.57479 10.1564 5.89843 10.1564H7.0703C7.39394 10.1564 7.65624 10.4187 7.65624 10.7423C7.65624 11.0658 7.39394 11.3283 7.0703 11.3283ZM7.0703 8.98436H5.89843C5.57479 8.98436 5.31249 8.72206 5.31249 8.39842C5.31249 8.07494 5.57479 7.81248 5.89843 7.81248H7.0703C7.39394 7.81248 7.65624 8.07494 7.65624 8.39842C7.65624 8.72206 7.39394 8.98436 7.0703 8.98436ZM10.5859 13.6718H9.41404C9.09041 13.6718 8.82811 13.4095 8.82811 13.0859C8.82811 12.7624 9.09041 12.5 9.41404 12.5H10.5859C10.9096 12.5 11.1719 12.7624 11.1719 13.0859C11.1719 13.4095 10.9096 13.6718 10.5859 13.6718ZM10.5859 11.3283H9.41404C9.09041 11.3283 8.82811 11.0658 8.82811 10.7423C8.82811 10.4187 9.09041 10.1564 9.41404 10.1564H10.5859C10.9096 10.1564 11.1719 10.4187 11.1719 10.7423C11.1719 11.0658 10.9096 11.3283 10.5859 11.3283ZM10.5859 8.98436H9.41404C9.09041 8.98436 8.82811 8.72206 8.82811 8.39842C8.82811 8.07494 9.09041 7.81248 9.41404 7.81248H10.5859C10.9096 7.81248 11.1719 8.07494 11.1719 8.39842C11.1719 8.72206 10.9096 8.98436 10.5859 8.98436ZM14.1015 16.0156H13.5156C13.192 16.0156 12.9297 15.7533 12.9297 15.4297C12.9297 15.1062 13.192 14.8437 13.5156 14.8437H14.1015C14.4252 14.8437 14.6875 15.1062 14.6875 15.4297C14.6875 15.7533 14.4252 16.0156 14.1015 16.0156ZM14.1015 13.6718H12.9297C12.606 13.6718 12.3437 13.4095 12.3437 13.0859C12.3437 12.7624 12.606 12.5 12.9297 12.5H14.1015C14.4252 12.5 14.6875 12.7624 14.6875 13.0859C14.6875 13.4095 14.4252 13.6718 14.1015 13.6718ZM14.1015 11.3283H12.9297C12.606 11.3283 12.3437 11.0658 12.3437 10.7423C12.3437 10.4187 12.606 10.1564 12.9297 10.1564H14.1015C14.4252 10.1564 14.6875 10.4187 14.6875 10.7423C14.6875 11.0658 14.4252 11.3283 14.1015 11.3283ZM14.1015 8.98436H12.9297C12.606 8.98436 12.3437 8.72206 12.3437 8.39842C12.3437 8.07494 12.606 7.81248 12.9297 7.81248H14.1015C14.4252 7.81248 14.6875 8.07494 14.6875 8.39842C14.6875 8.72206 14.4252 8.98436 14.1015 8.98436Z" fill="white"/>
<path d="M9.41404 16.0156H10.5859V20H9.41404V16.0156Z" fill="white"/>
<path d="M3.72329 2.47329L3.72588 3.23806C3.72649 3.40179 3.80553 3.5556 3.93859 3.65127C4.0715 3.74694 4.24239 3.77319 4.39788 3.72176L5.08605 3.49395L5.75789 3.7207C5.8113 3.7387 5.86638 3.74755 5.92131 3.74755C6.02629 3.74755 6.13005 3.71535 6.21779 3.65295C6.35131 3.55788 6.43126 3.40469 6.43264 3.24081L6.4395 2.45956L6.86354 1.84127C6.95342 1.7102 6.97722 1.54464 6.92793 1.39358C6.87865 1.24237 6.76177 1.12274 6.61177 1.06994L5.92208 0.826872L5.49895 0.219116C5.40358 0.0822447 5.24749 0.000457765 5.08071 0H5.07934C4.91302 0 4.75707 0.0808714 4.6614 0.216827L4.22576 0.835112L3.54965 1.06888C3.39935 1.12091 3.28185 1.23993 3.23165 1.39084C3.18145 1.54159 3.20434 1.7073 3.29345 1.83899L3.72329 2.47329Z" fill="white"/>
<path d="M8.64271 2.47329L8.64546 3.23806C8.64592 3.40179 8.72511 3.5556 8.85802 3.65127C8.99107 3.74694 9.16182 3.77319 9.31746 3.72176L10.0055 3.49395L10.6773 3.7207C10.7307 3.7387 10.786 3.74755 10.8409 3.74755C10.9457 3.74755 11.0496 3.71535 11.1372 3.65295C11.2707 3.55788 11.3507 3.40469 11.3522 3.24081L11.3591 2.45956L11.783 1.84127C11.8728 1.7102 11.8966 1.54464 11.8474 1.39358C11.7981 1.24237 11.6812 1.12274 11.5312 1.06994L10.8415 0.826872L10.4184 0.219116C10.3232 0.0822447 10.1671 0.000457765 10.0003 0H9.99876C9.83259 0 9.67665 0.0808714 9.58082 0.216827L9.14519 0.835112L8.46922 1.06888C8.31892 1.12091 8.20143 1.23993 8.15123 1.39084C8.10103 1.54159 8.12376 1.7073 8.21303 1.83899L8.64271 2.47329Z" fill="white"/>
<path d="M13.567 2.47329L13.5696 3.23806C13.5702 3.40179 13.6493 3.5556 13.7823 3.65127C13.9154 3.74694 14.0861 3.77319 14.2416 3.72176L14.9298 3.49395L15.6016 3.7207C15.655 3.7387 15.7103 3.74755 15.765 3.74755C15.87 3.74755 15.9739 3.71535 16.0615 3.65295C16.195 3.55788 16.275 3.40469 16.2765 3.24081L16.2834 2.45956L16.7073 1.84127C16.7971 1.7102 16.821 1.54464 16.7717 1.39358C16.7224 1.24237 16.6055 1.12274 16.4555 1.06994L15.7658 0.826872L15.3427 0.219116C15.2473 0.0822447 15.0912 0.000457765 14.9244 0H14.9231C14.7567 0 14.6008 0.0808714 14.5051 0.216827L14.0695 0.835112L13.3934 1.06888C13.2431 1.12091 13.1256 1.23993 13.0754 1.39084C13.0252 1.54159 13.0481 1.7073 13.1373 1.83899L13.567 2.47329Z" fill="white"/>
<path d="M0.585936 7.81249C0.262298 7.81249 0 8.07494 0 8.39842V19.414C0 19.7377 0.262298 20 0.585936 20H1.79687V7.81249H0.585936Z" fill="white"/>
<path d="M19.414 7.81249H18.2031V20H19.414C19.7377 20 20 19.7377 20 19.414V8.39842C20 8.07494 19.7377 7.81249 19.414 7.81249Z" fill="white"/>
</svg>
