<svg width="20" height="20" viewBox="0 0 20 20" fill="none" xmlns="http://www.w3.org/2000/svg">
<path d="M18.0435 0H1.95652C0.877656 0 0 0.877656 0 1.95652V4.78262H20V1.95652C20 0.877656 19.1223 0 18.0435 0ZM3.26086 3.04348C2.9007 3.04348 2.60867 2.75148 2.60867 2.39129C2.60867 2.03109 2.90066 1.7391 3.26086 1.7391C3.62105 1.7391 3.91305 2.03109 3.91305 2.39129C3.91305 2.75148 3.62105 3.04348 3.26086 3.04348ZM5.86957 3.04348C5.50941 3.04348 5.21738 2.75148 5.21738 2.39129C5.21738 2.03109 5.50938 1.7391 5.86957 1.7391C6.22977 1.7391 6.52176 2.03109 6.52176 2.39129C6.52176 2.75148 6.22973 3.04348 5.86957 3.04348ZM8.47824 3.04348C8.11809 3.04348 7.82605 2.75148 7.82605 2.39129C7.82605 2.03109 8.11805 1.7391 8.47824 1.7391C8.8384 1.7391 9.13043 2.03109 9.13043 2.39129C9.13043 2.75148 8.83844 3.04348 8.47824 3.04348ZM16.7391 3.04348H11.087C10.7269 3.04348 10.4348 2.75156 10.4348 2.39129C10.4348 2.03102 10.7269 1.7391 11.087 1.7391H16.7391C17.0992 1.7391 17.3913 2.03102 17.3913 2.39129C17.3913 2.75156 17.0992 3.04348 16.7391 3.04348Z" fill="white"/>
<path d="M0 6.08695V18.0435C0 19.1223 0.877656 20 1.95652 20H18.0435C19.1223 20 20 19.1223 20 18.0435V6.08695H0ZM9.12152 17.6087C8.76137 17.6087 8.46934 17.3167 8.46934 16.9565C8.46934 16.5964 8.76133 16.3043 9.12152 16.3043C9.48168 16.3043 9.77371 16.5963 9.77371 16.9565C9.77371 17.3167 9.48168 17.6087 9.12152 17.6087ZM13.0346 17.6087C12.6744 17.6087 12.3824 17.3167 12.3824 16.9565C12.3824 16.5964 12.6744 16.3043 13.0346 16.3043C13.3948 16.3043 13.6868 16.5963 13.6868 16.9565C13.6868 17.3167 13.3947 17.6087 13.0346 17.6087ZM15.6012 11.2904L14.2969 15.2034C14.2094 15.466 13.9636 15.6433 13.6868 15.6433H8.47062L8.46937 15.6435C8.34137 15.6435 8.20793 15.6037 8.09477 15.5226C7.94895 15.4183 7.8902 15.2965 7.85926 15.2034L6.2666 10.4259H4.55633C4.20094 10.4259 3.91309 10.1378 3.91309 9.78266C3.91309 9.4275 4.20094 9.13938 4.55633 9.13938H6.73023C7.00707 9.13938 7.25289 9.31664 7.34035 9.57926L7.62852 10.4438H14.9911C15.1979 10.4438 15.3919 10.5431 15.5129 10.7108C15.6339 10.8785 15.6666 11.0942 15.6012 11.2904Z" fill="white"/>
</svg>
