<svg width="20" height="18" viewBox="0 0 20 18" fill="none" xmlns="http://www.w3.org/2000/svg">
<path d="M10 15.5684L13.0704 5.41172H6.92961L10 15.5684Z" fill="white"/>
<path d="M9.44352 17.7457L5.71496 5.41172H0L9.47746 17.8509C9.47746 17.8509 9.45473 17.7827 9.44352 17.7457Z" fill="white"/>
<path d="M10.5225 17.8509L20 5.41172H14.285L10.5565 17.7457C10.5453 17.7827 10.5225 17.8509 10.5225 17.8509Z" fill="white"/>
<path d="M6.83453 4.24902H13.1655L12.1318 0H7.8682L6.83453 4.24902Z" fill="white"/>
<path d="M14.3621 4.24902H20L16.9371 0.229024C16.8271 0.0847266 16.6561 0 16.4747 0H13.3284L14.3621 4.24902Z" fill="white"/>
<path d="M5.63793 4.24902L6.6716 7.45058e-08H3.52531C3.34387 7.45058e-08 3.17285 0.0846876 3.06289 0.229024L0 4.24902H5.63793Z" fill="white"/>
</svg>
