<svg width="19" height="20" viewBox="0 0 19 20" fill="none" xmlns="http://www.w3.org/2000/svg">
<path d="M6.09724 3.90249C5.65153 3.45679 5.4545 3.23823 5.45458 2.72714C5.4545 2.21624 5.65161 1.99768 6.09743 1.55179C6.45247 1.19682 6.45247 0.621315 6.09751 0.266275C5.74255 -0.0888039 5.16685 -0.0886867 4.81181 0.266197C4.31575 0.762213 3.63622 1.44159 3.63641 2.7271C3.63622 4.01281 4.31563 4.69214 4.81177 5.18808C5.25751 5.6339 5.45462 5.85258 5.45462 6.36355C5.45462 6.86566 5.86165 7.27266 6.36372 7.27266C6.86579 7.27266 7.27283 6.8657 7.27283 6.36355C7.27275 5.07789 6.59337 4.39851 6.09724 3.90249Z" fill="white"/>
<path d="M10.3397 3.90249C9.89396 3.45679 9.69693 3.23823 9.69701 2.72714C9.69693 2.21624 9.89404 1.99768 10.3399 1.55179C10.6949 1.19682 10.6949 0.621315 10.3399 0.266275C9.98498 -0.0888039 9.40928 -0.0886867 9.05424 0.266197C8.55818 0.762213 7.87865 1.44167 7.87884 2.7271C7.87865 4.01281 8.55806 4.69214 9.0542 5.18808C9.49994 5.6339 9.69705 5.85258 9.69705 6.36355C9.69705 6.86566 10.1041 7.27266 10.6062 7.27266C11.1082 7.27266 11.5153 6.8657 11.5153 6.36355C11.5152 5.07789 10.8358 4.39851 10.3397 3.90249Z" fill="white"/>
<path d="M13.9894 15.7576H14.8485L14.8509 15.7575C16.6878 15.7563 18.1819 14.2615 18.1819 12.4242C18.1819 10.5862 16.6866 9.09086 14.8485 9.09086H1.51516C1.01309 9.09086 0.606056 9.49797 0.606056 9.99996V13.0303C0.606056 15.0691 1.48606 16.9061 2.88614 18.1818H0.909103C0.407032 18.1818 0 18.5888 0 19.0909C0 19.5929 0.407032 20 0.909103 20H14.2425C14.7446 20 15.1516 19.5929 15.1516 19.0909C15.1516 18.5888 14.7446 18.1818 14.2425 18.1818H12.2655C13.0013 17.5113 13.5932 16.6859 13.9894 15.7576ZM14.5455 13.0303V10.9091H14.8486C15.6841 10.9091 16.3637 11.5888 16.3637 12.4243C16.3637 13.2597 15.6841 13.9394 14.8486 13.9394H14.4862C14.5251 13.6418 14.5455 13.3384 14.5455 13.0303Z" fill="white"/>
</svg>
