<svg width="15" height="20" viewBox="0 0 15 20" fill="none" xmlns="http://www.w3.org/2000/svg">
<path d="M12.9327 0H1.92402C0.863125 0 0 0.863125 0 1.92402V18.076C0 19.1369 0.863125 20 1.92402 20H12.9327C13.9936 20 14.8567 19.1369 14.8567 18.076V1.92402C14.8567 0.863125 13.9936 0 12.9327 0ZM2.63707 3.32406C2.63707 3.00047 2.89941 2.73813 3.22301 2.73813H11.6337C11.9573 2.73813 12.2196 3.00047 12.2196 3.32406V4.48102C12.2196 4.80461 11.9573 5.06695 11.6337 5.06695H3.22301C2.89941 5.06695 2.63707 4.80461 2.63707 4.48102V3.32406ZM4.60977 16.4811C4.60977 16.8047 4.34742 17.067 4.02383 17.067H3.22305C2.89945 17.067 2.63711 16.8047 2.63711 16.4811V15.9259C2.63711 15.6023 2.89945 15.34 3.22305 15.34H4.02383C4.34742 15.34 4.60977 15.6023 4.60977 15.9259V16.4811ZM4.60977 13.0135C4.60977 13.3371 4.34742 13.5995 4.02383 13.5995H3.22305C2.89945 13.5995 2.63711 13.3371 2.63711 13.0135V12.4584C2.63711 12.1348 2.89945 11.8724 3.22305 11.8724H4.02383C4.34742 11.8724 4.60977 12.1348 4.60977 12.4584V13.0135ZM8.4627 16.4811C8.4627 16.8047 8.20035 17.067 7.87676 17.067H7.07598C6.75234 17.067 6.49004 16.8047 6.49004 16.4811V15.9259C6.49004 15.6023 6.75234 15.34 7.07598 15.34H7.87676C8.20035 15.34 8.4627 15.6023 8.4627 15.9259V16.4811ZM8.4627 13.0135C8.4627 13.3371 8.20035 13.5995 7.87676 13.5995H7.07598C6.75234 13.5995 6.49004 13.3371 6.49004 13.0135V12.4584C6.49004 12.1348 6.75234 11.8724 7.07598 11.8724H7.87676C8.20035 11.8724 8.4627 12.1348 8.4627 12.4584V13.0135ZM8.4627 9.5459C8.4627 9.86953 8.20035 10.1318 7.87676 10.1318H3.22301C2.89941 10.1318 2.63707 9.86949 2.63707 9.5459V8.99074C2.63707 8.66715 2.89941 8.4048 3.22301 8.4048H7.87676C8.20035 8.4048 8.4627 8.66715 8.4627 8.99074V9.5459ZM12.3156 16.4811C12.3156 16.8047 12.0533 17.067 11.7297 17.067H10.9289C10.6053 17.067 10.343 16.8047 10.343 16.4811V15.9259C10.343 15.6023 10.6053 15.34 10.9289 15.34H11.7297C12.0533 15.34 12.3156 15.6023 12.3156 15.9259V16.4811ZM12.3156 13.0135C12.3156 13.3371 12.0533 13.5995 11.7297 13.5995H10.9289C10.6053 13.5995 10.343 13.3371 10.343 13.0135V12.4584C10.343 12.1348 10.6053 11.8724 10.9289 11.8724H11.7297C12.0533 11.8724 12.3156 12.1348 12.3156 12.4584V13.0135ZM12.3156 9.5459C12.3156 9.86953 12.0533 10.1318 11.7297 10.1318H10.9289C10.6053 10.1318 10.343 9.86949 10.343 9.5459V8.99074C10.343 8.66715 10.6053 8.4048 10.9289 8.4048H11.7297C12.0533 8.4048 12.3156 8.66715 12.3156 8.99074V9.5459Z" fill="white"/>
</svg>
