<svg width="20" height="20" viewBox="0 0 20 20" fill="none" xmlns="http://www.w3.org/2000/svg">
<path d="M7.07031 17.6172V18.8281H5.3125C4.98863 18.8281 4.72656 19.0902 4.72656 19.4141C4.72656 19.7379 4.98863 20 5.3125 20H14.6875C15.0114 20 15.2734 19.7379 15.2734 19.4141C15.2734 19.0902 15.0114 18.8281 14.6875 18.8281H12.9297V17.6172H7.07031Z" fill="white"/>
<path d="M0.585938 16.4453H19.4141C19.7379 16.4453 20 16.1832 20 15.8594V2.96875C20 2.64488 19.7379 2.38281 19.4141 2.38281H18.2031V12.3438C18.2031 13.313 17.4146 14.1016 16.4453 14.1016H3.55469C2.58539 14.1016 1.79688 13.313 1.79688 12.3438V2.38281H0.585938C0.26207 2.38281 0 2.64488 0 2.96875V15.8594C0 16.1832 0.26207 16.4453 0.585938 16.4453Z" fill="white"/>
<path d="M13.6026 9.08446L12.0988 8.58266L12.6001 10.087L13.6026 9.08446Z" fill="white"/>
<path d="M17.0312 0.585938C17.0312 0.26207 16.7692 0 16.4453 0H3.55469C3.23082 0 2.96875 0.26207 2.96875 0.585938V4.72656H17.0312V0.585938ZM5.3125 2.96875C4.98891 2.96875 4.72656 2.70641 4.72656 2.38281C4.72656 2.05914 4.98891 1.79688 5.3125 1.79688C5.63609 1.79688 5.89844 2.05914 5.89844 2.38281C5.89844 2.70641 5.63609 2.96875 5.3125 2.96875ZM7.65625 2.96875C7.33266 2.96875 7.07031 2.70641 7.07031 2.38281C7.07031 2.05914 7.33266 1.79688 7.65625 1.79688C7.97984 1.79688 8.24219 2.05914 8.24219 2.38281C8.24219 2.70641 7.97984 2.96875 7.65625 2.96875ZM10 2.96875C9.67641 2.96875 9.41406 2.70641 9.41406 2.38281C9.41406 2.05914 9.67641 1.79688 10 1.79688C10.3236 1.79688 10.5859 2.05914 10.5859 2.38281C10.5859 2.70641 10.3236 2.96875 10 2.96875Z" fill="white"/>
<path d="M2.96875 12.3438C2.96875 12.6676 3.23082 12.9297 3.55469 12.9297H16.4453C16.7692 12.9297 17.0312 12.6676 17.0312 12.3438V5.89844H2.96875V12.3438ZM10.7576 7.24199C10.9155 7.08637 11.1479 7.02969 11.3573 7.10066L14.8729 8.27254C15.0652 8.33664 15.2117 8.4957 15.2575 8.69367C15.3044 8.89109 15.246 9.09879 15.1018 9.24242L14.3442 10L15.1018 10.7576C15.3307 10.9865 15.3307 11.3573 15.1018 11.5862C14.8729 11.815 14.5021 11.815 14.2732 11.5862L13.5156 10.8286L12.758 11.5862C12.6168 11.7274 12.411 11.789 12.2087 11.7424C12.0119 11.6955 11.8516 11.5501 11.7876 11.3573L10.6157 7.84168C10.5459 7.63105 10.6008 7.39875 10.7576 7.24199ZM5.3125 7.07031H8.82812C9.15199 7.07031 9.41406 7.33238 9.41406 7.65625C9.41406 7.98012 9.15199 8.24219 8.82812 8.24219H5.3125C4.98863 8.24219 4.72656 7.98012 4.72656 7.65625C4.72656 7.33238 4.98863 7.07031 5.3125 7.07031ZM5.3125 9.41406H8.82812C9.15199 9.41406 9.41406 9.67613 9.41406 10C9.41406 10.3239 9.15199 10.5859 8.82812 10.5859H5.3125C4.98863 10.5859 4.72656 10.3239 4.72656 10C4.72656 9.67613 4.98863 9.41406 5.3125 9.41406Z" fill="white"/>
</svg>
