<svg width="20" height="20" viewBox="0 0 20 20" fill="none" xmlns="http://www.w3.org/2000/svg">
<path d="M5.99672 11.7969H7.71785C7.77113 10.6373 7.97785 9.51812 8.34055 8.66047C7.09844 9.22996 6.19941 10.3988 5.99672 11.7969Z" fill="white"/>
<path d="M10.0391 8.28125C9.72562 8.28125 9.00195 9.51734 8.88984 11.7969H11.1882C11.0762 9.51734 10.3525 8.28125 10.0391 8.28125Z" fill="white"/>
<path d="M8.88984 12.9688C9.00195 15.2483 9.72562 16.4844 10.0391 16.4844C10.3525 16.4844 11.0762 15.2483 11.1883 12.9688H8.88984Z" fill="white"/>
<path d="M18.2422 0H1.75781C0.788516 0 0 0.788516 0 1.75781V3.51562H20V1.75781C20 0.788516 19.2115 0 18.2422 0ZM10.0391 2.34375H8.86719C8.0948 2.34375 8.09164 1.17188 8.86719 1.17188H10.0391C10.8114 1.17188 10.8146 2.34375 10.0391 2.34375ZM13.5547 2.34375H12.3828C11.6104 2.34375 11.6073 1.17188 12.3828 1.17188H13.5547C14.3271 1.17188 14.3302 2.34375 13.5547 2.34375ZM17.0703 2.34375H15.8984C15.1261 2.34375 15.1229 1.17188 15.8984 1.17188H17.0703C17.8427 1.17188 17.8459 2.34375 17.0703 2.34375Z" fill="white"/>
<path d="M7.71785 12.9688H5.99672C6.19941 14.3669 7.09844 15.5357 8.34055 16.1052C7.97785 15.2475 7.77113 14.1283 7.71785 12.9688Z" fill="white"/>
<path d="M0 4.6875V18.2422C0 19.2115 0.788516 20 1.75781 20H18.2422C19.2115 20 20 19.2115 20 18.2422V4.6875H0ZM10.0391 17.6562C7.13113 17.6562 4.76562 15.2907 4.76562 12.3828C4.76562 9.47488 7.13113 7.10938 10.0391 7.10938C12.947 7.10938 15.3125 9.47488 15.3125 12.3828C15.3125 15.2907 12.947 17.6562 10.0391 17.6562Z" fill="white"/>
<path d="M11.7376 8.66047C12.1003 9.51812 12.307 10.6373 12.3603 11.7969H14.0814C13.8787 10.3988 12.9797 9.22996 11.7376 8.66047Z" fill="white"/>
<path d="M12.3603 12.9688C12.307 14.1283 12.1003 15.2475 11.7376 16.1052C12.9797 15.5357 13.8787 14.3669 14.0814 12.9688H12.3603Z" fill="white"/>
</svg>
