<svg width="18" height="20" viewBox="0 0 18 20" fill="none" xmlns="http://www.w3.org/2000/svg">
<path d="M0 9.40681V9.99315C0 10.2548 0.173478 10.485 0.425447 10.5572C0.596071 10.6058 4.65635 11.7522 8.79507 11.7522C12.9338 11.7522 16.9941 10.6058 17.1647 10.5572C17.4166 10.485 17.5901 10.2549 17.5901 9.99315V9.40681C17.5901 9.08272 17.3279 8.82047 17.0038 8.82047H0.586338C0.26225 8.82047 0 9.08272 0 9.40681Z" fill="white"/>
<path d="M15.8311 14.0975C16.1552 14.0975 16.4175 13.8353 16.4175 13.5112V11.9569C15.5848 12.1534 14.3316 12.4163 12.871 12.6197C12.7234 14.7495 10.9617 16.4429 8.79507 16.4429C6.62844 16.4429 4.86673 14.7495 4.71912 12.6197C3.2582 12.4163 2.00516 12.1533 1.17268 11.9568V13.5112C1.17268 13.8353 1.43493 14.0975 1.75901 14.0975H2.59044C2.72671 14.5768 2.91969 15.0389 3.16763 15.4786L2.57614 16.0701C2.34711 16.2991 2.34711 16.6702 2.57614 16.8992L4.23438 18.5575C4.4634 18.7865 4.83448 18.7865 5.0635 18.5575L5.655 17.966C6.09475 18.2139 6.55683 18.4069 7.0361 18.5432V19.4137C7.0361 19.7378 7.29835 20 7.62244 20H9.96779C10.2919 20 10.5541 19.7378 10.5541 19.4137V18.5432C11.0334 18.4069 11.4955 18.2139 11.9352 17.966L12.5267 18.5575C12.7558 18.7865 13.1268 18.7865 13.3558 18.5575L15.0141 16.8992C15.2431 16.6702 15.2431 16.2991 15.0141 16.0701L14.4226 15.4786C14.6705 15.0389 14.8635 14.5768 14.9998 14.0975H15.8311Z" fill="white"/>
<path d="M7.86346 6.42301C7.56814 6.55666 7.22029 6.42438 7.08817 6.12984L5.25777 2.03228C3.16509 3.13346 1.66223 5.22305 1.28576 7.6478H16.3044C15.9279 5.22305 14.4251 3.13342 12.3324 2.03228L10.502 6.12984C10.3698 6.42458 10.0217 6.5565 9.72669 6.42301C9.4318 6.29019 9.30011 5.94319 9.43352 5.64772L11.4596 1.1156C11.6052 0.792563 11.4376 0.398622 11.0956 0.305942C9.59113 -0.101994 7.99883 -0.101994 6.49432 0.30602C6.15233 0.3987 5.98472 0.792641 6.13036 1.11567L8.15663 5.64772C8.29004 5.94319 8.15894 6.29019 7.86346 6.42301Z" fill="white"/>
</svg>
