<svg width="20" height="18" viewBox="0 0 20 18" fill="none" xmlns="http://www.w3.org/2000/svg">
<path d="M18.2422 4.65219C12.4051 4.65219 7.40629 4.65219 1.75781 4.65219C0.788516 4.65219 0 5.4407 0 6.41V11.0975C0 12.0668 0.788516 12.8553 1.75781 12.8553H18.2422C19.2115 12.8553 20 12.0668 20 11.0975V6.41C20 5.4407 19.2115 4.65219 18.2422 4.65219ZM18.7663 7.84395L17.5945 10.1877C17.3785 10.6184 16.7621 10.6184 16.5462 10.1877L15.8984 8.89223L15.2507 10.1877C15.03 10.6278 14.2058 10.603 14.1116 10.0062L13.0797 7.9418C13.0122 7.85891 12.9737 7.75477 12.9612 7.64359C12.954 7.71133 12.9392 7.77941 12.9069 7.84395L11.735 10.1877C11.5191 10.6184 10.9027 10.6184 10.6868 10.1877L10.0391 8.89223L9.3132 10.1877C9.11406 10.5848 8.46406 10.5848 8.26492 10.1877C8.17512 10.0081 7.06246 7.83203 7.04082 7.65117C7.02609 7.77742 6.97844 7.8925 6.90133 7.98012C6.79922 8.1843 5.84559 10.1617 5.68582 10.3098C5.35652 10.6618 4.91281 10.5139 4.74926 10.1877L4.10156 8.89223L3.45383 10.1877C3.23789 10.6184 2.62148 10.6184 2.40555 10.1877L1.23367 7.84395C0.887422 7.15148 1.93461 6.62789 2.28195 7.3198L2.92969 8.61527L3.57742 7.3198C3.78855 6.89758 4.41516 6.9016 4.6257 7.3198L5.27344 8.61527L5.92117 7.3198C6.18168 6.79879 7.01285 6.94395 7.03941 7.56387C7.06039 6.94219 7.87395 6.78715 8.14133 7.3198L8.78906 8.61527L9.4368 7.3198C9.63594 6.9227 10.3641 6.9227 10.5632 7.3198L11.2109 8.61527L11.8587 7.3198C12.125 6.7893 12.9334 6.93957 12.9599 7.55848C12.9849 6.91191 13.821 6.8041 14.0788 7.3198L14.7266 8.61527L15.3743 7.3198C15.5734 6.9227 16.2234 6.9227 16.4226 7.3198L17.0703 8.61527L17.718 7.3198C18.0654 6.62789 19.1126 7.15148 18.7663 7.84395Z" fill="white"/>
<path d="M7.03445 3.48031H9.375V1.22074C8.4873 1.46937 7.6648 2.28141 7.03445 3.48031Z" fill="white"/>
<path d="M10.625 3.91006e-05V0.0330859C12.1026 0.295508 13.4012 1.54297 14.2639 3.48031H17.032C15.5092 1.46535 13.1723 0.175469 10.625 3.91006e-05Z" fill="white"/>
<path d="M2.96801 3.48031H5.73613C6.59879 1.54297 7.89742 0.295508 9.375 0.0330469V0C6.8277 0.175469 4.49082 1.46535 2.96801 3.48031Z" fill="white"/>
<path d="M10.625 1.22074V3.48031H12.9655C12.3352 2.28141 11.5127 1.46937 10.625 1.22074Z" fill="white"/>
<path d="M7.03445 14.0272C7.6648 15.2261 8.4873 16.0381 9.375 16.2868V14.0272H7.03445Z" fill="white"/>
<path d="M10.625 14.0272V16.2868C11.5127 16.0381 12.3352 15.2261 12.9655 14.0272H10.625Z" fill="white"/>
<path d="M14.2639 14.0272C13.4012 15.9645 12.1026 17.212 10.625 17.4745V17.5075C13.1723 17.332 15.5092 16.0421 17.032 14.0272H14.2639Z" fill="white"/>
<path d="M5.73613 14.0272H2.96801C4.49078 16.0421 6.82766 17.332 9.375 17.5075V17.4744C7.89742 17.212 6.59879 15.9645 5.73613 14.0272Z" fill="white"/>
</svg>
