<svg width="20" height="20" viewBox="0 0 20 20" fill="none" xmlns="http://www.w3.org/2000/svg">
<path d="M11.2839 17.0007C3.04701 8.76389 11.2365 16.9531 2.99927 8.71608C2.77037 8.48709 2.39978 8.48709 2.17083 8.71608L1.3424 9.54456C0.65712 10.2298 0.65712 11.3447 1.3424 12.03L1.75665 12.4441L1.3424 12.8584C0.65716 13.5437 0.65716 14.6586 1.34243 15.3438L4.65627 18.6577C5.34154 19.3429 6.45639 19.3429 7.14167 18.6577L7.55585 18.2434L7.9701 18.6577C8.65538 19.3429 9.77023 19.3429 10.4555 18.6577L11.2839 17.8292C11.5129 17.6002 11.5129 17.2297 11.2839 17.0007Z" fill="white"/>
<path d="M18.6533 7.97014L18.239 7.55588L18.6533 7.14162C19.3386 6.45638 19.3386 5.34146 18.6533 4.65626L15.3395 1.34243C14.6542 0.657155 13.5393 0.657155 12.8541 1.34243L12.4398 1.75665L12.0256 1.34243C11.3403 0.657155 10.2255 0.657155 9.54018 1.34243L8.71175 2.17087C8.48276 2.39985 8.48276 2.77044 8.71175 2.99931L16.9964 11.284C17.2253 11.5129 17.5959 11.5129 17.8249 11.284L18.6533 10.4555C19.3386 9.77022 19.3386 8.65533 18.6533 7.97014Z" fill="white"/>
<path d="M19.4817 0.51399C18.7965 -0.171324 17.6816 -0.171324 16.9964 0.513951L16.5821 0.928171L19.0675 3.41357L19.4817 2.99931C20.167 2.31411 20.167 1.19919 19.4817 0.51399Z" fill="white"/>
<path d="M0.928136 16.5865L0.513956 17.0007C-0.171319 17.6859 -0.171319 18.8008 0.513956 19.4861C1.19915 20.1713 2.31408 20.1713 2.99927 19.4861L3.41353 19.0718L0.928136 16.5865Z" fill="white"/>
<path d="M10.7829 6.7274L6.72745 10.7873L9.21284 13.2726L13.2683 9.21284L10.7829 6.7274Z" fill="white"/>
</svg>
