<svg width="20" height="18" viewBox="0 0 20 18" fill="none" xmlns="http://www.w3.org/2000/svg">
<path d="M12.7344 16.6797H10.5859V4.61334C11.4084 4.40079 12.0572 3.75214 12.2696 2.92969H15.0256L12.4687 9.17969H13.7349L15.8984 3.8913L18.0618 9.17969H19.328L16.4407 2.12189L16.44 2.12021C16.4374 2.1138 16.4343 2.10785 16.4316 2.10159C16.4272 2.09198 16.4227 2.08237 16.4178 2.07306C16.4146 2.06696 16.4113 2.061 16.4079 2.05505C16.4023 2.04514 16.3963 2.03552 16.3902 2.02591C16.3872 2.02133 16.3843 2.0166 16.3812 2.01202C16.3716 1.99799 16.3615 1.98441 16.3507 1.97144L16.3489 1.9693C16.3387 1.95694 16.3277 1.94504 16.3164 1.93359C16.313 1.93008 16.3094 1.92673 16.3058 1.92322C16.297 1.91452 16.2877 1.90628 16.2782 1.89819C16.2743 1.89468 16.2703 1.89117 16.2662 1.88797C16.2549 1.87881 16.2433 1.87012 16.2314 1.86188C16.2292 1.86035 16.2271 1.85867 16.2248 1.85715C16.2114 1.84814 16.1975 1.8399 16.1835 1.83197C16.1777 1.82877 16.1717 1.82587 16.1659 1.82297C16.1566 1.81824 16.1473 1.81366 16.1378 1.80939C16.1313 1.80649 16.1249 1.80359 16.1183 1.80099C16.1072 1.79642 16.0959 1.79245 16.0844 1.78848C16.0786 1.78665 16.073 1.78452 16.0672 1.78284C16.0526 1.77841 16.0379 1.7746 16.0229 1.77139C16.0168 1.77017 16.0109 1.7691 16.0048 1.76804C15.9929 1.76575 15.9808 1.76392 15.9688 1.76239C15.9631 1.76178 15.9575 1.76102 15.9517 1.76056C15.9341 1.75888 15.9164 1.75781 15.8984 1.75781H12.2696C12.0087 0.748138 11.0901 0 10 0C8.90991 0 7.99118 0.748138 7.73041 1.75781H4.10156C4.08356 1.75781 4.06586 1.75888 4.04816 1.76056C4.04251 1.76102 4.03687 1.76178 4.03122 1.76239C4.01901 1.76392 4.00711 1.76575 3.99521 1.76788C3.98911 1.7691 3.983 1.77002 3.97705 1.77139C3.9621 1.7746 3.9473 1.77841 3.9328 1.78268C3.927 1.78452 3.92136 1.7865 3.91556 1.78848C3.90411 1.7923 3.89267 1.79642 3.88153 1.80084C3.87497 1.80359 3.86856 1.80634 3.86215 1.80923C3.85269 1.81351 3.84323 1.81808 3.83392 1.82281C3.82812 1.82587 3.82233 1.82877 3.81653 1.83197C3.80249 1.8399 3.7886 1.84814 3.77518 1.85715C3.77289 1.85867 3.77075 1.86035 3.76862 1.86188C3.75671 1.87012 3.74512 1.87881 3.73383 1.88782C3.72971 1.89117 3.72574 1.89468 3.72162 1.89804C3.71216 1.90613 3.703 1.91452 3.694 1.92322C3.69049 1.92657 3.68698 1.92993 3.68347 1.93344C3.67233 1.94504 3.66135 1.95679 3.65097 1.9693L3.64914 1.97128C3.63846 1.98441 3.62839 1.99799 3.61877 2.01202C3.61557 2.01645 3.61267 2.02118 3.60977 2.02591C3.60367 2.03537 3.59772 2.04514 3.59207 2.0549C3.58871 2.06085 3.58536 2.0668 3.58215 2.07291C3.57727 2.08237 3.57285 2.09198 3.56842 2.10159C3.56552 2.10785 3.56262 2.1138 3.56003 2.12006L3.55927 2.12189L0.671997 9.17969H1.93802L4.10156 3.8913L6.26495 9.17969H7.53113L4.97437 2.92969H7.73041C7.94281 3.75214 8.59161 4.40094 9.41391 4.61334V16.6797H7.26547C6.94199 16.6797 6.67953 16.942 6.67953 17.2656C6.67953 17.5893 6.94199 17.8516 7.26547 17.8516H12.7342C13.0579 17.8516 13.3202 17.5893 13.3202 17.2656C13.3202 16.942 13.058 16.6797 12.7344 16.6797Z" fill="white"/>
<path d="M19.4141 10.3516H12.3828C12.0592 10.3516 11.7969 10.6139 11.7969 10.9375C11.7969 12.9837 13.6368 14.6484 15.8984 14.6484C18.1601 14.6484 20 12.9837 20 10.9375C20 10.6139 19.7377 10.3516 19.4141 10.3516Z" fill="white"/>
<path d="M8.20312 10.9375C8.20312 10.6139 7.94083 10.3516 7.61719 10.3516H0.585938C0.262299 10.3516 0 10.6139 0 10.9375C0 12.9837 1.8399 14.6484 4.10156 14.6484C6.36322 14.6484 8.20312 12.9837 8.20312 10.9375Z" fill="white"/>
</svg>
