<svg width="20" height="20" viewBox="0 0 20 20" fill="none" xmlns="http://www.w3.org/2000/svg">
<path d="M6.26383 4.74867L7.07528 3.93727C7.25364 3.75898 7.5261 3.71473 7.75161 3.8275C9.1595 4.53141 10.8405 4.53141 12.2483 3.8275C12.3297 3.7868 12.4194 3.76562 12.5103 3.76562C12.753 3.76562 12.8789 3.89148 13.0006 4.0132L13.7362 4.74871C13.9116 4.92418 14.145 5.02082 14.3931 5.02082H14.9791V3.8116C14.9791 3.22445 14.7851 2.64238 14.4328 2.17262C14.432 2.17148 14.4311 2.17031 14.4302 2.16918C13.9836 1.57457 12.5922 0.00015625 10 0C7.40778 0.00015625 6.01641 1.57457 5.56973 2.16918C5.56887 2.17031 5.56801 2.17148 5.56715 2.17262C5.21485 2.64238 5.02083 3.22445 5.02083 3.8116V5.02082H5.60684C5.85501 5.02082 6.08833 4.92422 6.26383 4.74867Z" fill="white"/>
<path d="M14.9787 6.1927H14.3932C13.832 6.1927 13.3044 5.97418 12.9076 5.57738L12.3836 5.05336C10.8641 5.68438 9.13586 5.68438 7.61645 5.05336C7.46145 5.20836 7.26657 5.4032 7.09247 5.57734C6.69559 5.97418 6.16797 6.1927 5.60684 6.1927H5.02129C5.04141 8.92539 7.26258 11.1345 10 11.1345C12.7374 11.1345 14.9586 8.92539 14.9787 6.1927Z" fill="white"/>
<path d="M3.76563 18.1588C3.76563 17.3485 4.29211 16.6592 5.02082 16.4139V12.598L4.07536 12.8081C2.80575 13.0903 1.76161 14.032 1.35032 15.2657L0.0293798 19.2286C-0.0880812 19.581 0.156645 20 0.585317 20H5.60676C4.59157 20 3.76563 19.174 3.76563 18.1588Z" fill="white"/>
<path d="M4.93751 18.1588C4.93751 18.5278 5.23774 18.8281 5.60676 18.8281C5.97579 18.8281 6.27602 18.5278 6.27602 18.1588C6.27602 17.7898 5.97579 17.4896 5.60676 17.4896C5.23774 17.4896 4.93751 17.7898 4.93751 18.1588Z" fill="white"/>
<path d="M14.3932 16.2344C13.6761 16.2344 13.0964 16.8148 13.0964 17.5313V18.8281H13.1381C13.4616 18.8281 13.724 19.0905 13.724 19.4141C13.724 19.7377 13.4616 20 13.1381 20H15.6485C15.3249 20 15.0625 19.7377 15.0625 19.4141C15.0625 19.0905 15.3249 18.8281 15.6485 18.8281H15.6901V17.5313C15.6901 16.8161 15.1083 16.2344 14.3932 16.2344Z" fill="white"/>
<path d="M13.8073 15.1324V12.3376L12.9211 12.1406L10.5024 16.1716C10.3965 16.3481 10.2058 16.4561 10 16.4561C9.79418 16.4561 9.60348 16.3481 9.49758 16.1716L7.07825 12.1408L6.1927 12.3376V16.4139C6.92141 16.6593 7.4479 17.3485 7.4479 18.1589C7.4479 19.1741 6.62196 20 5.60676 20L12.5104 20C12.1868 20 11.9245 19.7377 11.9245 19.4141V17.5313C11.9245 15.9339 13.2246 15.2736 13.8073 15.1324Z" fill="white"/>
<path d="M19.9706 19.2286L18.6497 15.2657C18.2384 14.032 17.1942 13.0903 15.9246 12.8081L14.9791 12.598V15.1333C16.0584 15.3971 16.862 16.3719 16.862 17.5312V19.4141C16.862 19.7377 16.5996 20 16.276 20H19.4147C19.8434 20 20.0881 19.581 19.9706 19.2286Z" fill="white"/>
<path d="M8.42168 12.1008L10 14.7313L11.5783 12.1008C11.0744 12.2346 10.5455 12.3064 10 12.3064C9.45454 12.3064 8.92559 12.2347 8.42168 12.1008Z" fill="white"/>
</svg>
