<svg width="20" height="19" viewBox="0 0 20 19" fill="none" xmlns="http://www.w3.org/2000/svg">
<path d="M12.8889 14.9129H7.11109C6.74293 14.9129 6.44441 15.2113 6.44441 15.5795C6.44441 15.9477 6.74289 16.2462 7.11109 16.2462H12.8889C13.257 16.2462 13.5555 15.9477 13.5555 15.5795C13.5555 15.2113 13.2571 14.9129 12.8889 14.9129Z" fill="white"/>
<path d="M12.8889 12.8102H7.11109C6.74293 12.8102 6.44441 13.1087 6.44441 13.4769C6.44441 13.8451 6.74289 14.1436 7.11109 14.1436H12.8889C13.257 14.1436 13.5555 13.8451 13.5555 13.4769C13.5555 13.1087 13.2571 12.8102 12.8889 12.8102Z" fill="white"/>
<path d="M18.4445 4.52508H16.3232V0.66668C16.3232 0.298516 16.0248 0 15.6566 0H4.34344C3.97527 0 3.67676 0.298477 3.67676 0.66668V4.52508H1.55555C0.697812 4.52508 0 5.22293 0 6.08066V12.7878C0 13.6455 0.697812 14.3433 1.55555 14.3433H3.67687V17.922C3.67687 18.2902 3.97535 18.5887 4.34355 18.5887H15.6564C16.0246 18.5887 16.3231 18.2902 16.3231 17.922V14.3433H18.4445C19.3022 14.3433 20 13.6455 20 12.7878V6.08066C20 5.22297 19.3022 4.52508 18.4445 4.52508ZM5.01008 1.33336H14.9899V4.52508H5.01008V1.33336ZM14.9898 17.2553H5.01023C5.01023 17.125 5.01023 11.9622 5.01023 11.8011H14.9898C14.9898 11.9663 14.9898 17.13 14.9898 17.2553ZM15.6566 8.43973H13.9596C13.5914 8.43973 13.2929 8.14125 13.2929 7.77305C13.2929 7.40484 13.5914 7.10637 13.9596 7.10637H15.6566C16.0247 7.10637 16.3232 7.40484 16.3232 7.77305C16.3232 8.14125 16.0248 8.43973 15.6566 8.43973Z" fill="white"/>
</svg>
