<svg width="20" height="20" viewBox="0 0 20 20" fill="none" xmlns="http://www.w3.org/2000/svg">
<path d="M0 13.8672C0 15.0518 0.963789 16.0156 2.14844 16.0156H17.8516C19.0362 16.0156 20 15.0518 20 13.8672V13.6719H0V13.8672Z" fill="white"/>
<path d="M14.6875 18.8281H13.9541L13.4715 17.1875H6.52848L6.04594 18.8281H5.3125C4.98891 18.8281 4.72656 19.0905 4.72656 19.4141C4.72656 19.7377 4.98891 20 5.3125 20H14.6875C15.0111 20 15.2734 19.7377 15.2734 19.4141C15.2734 19.0905 15.0111 18.8281 14.6875 18.8281Z" fill="white"/>
<path d="M10 4.49219C9.03074 4.49219 8.24219 5.28074 8.24219 6.25C8.24219 7.21926 9.03074 8.00781 10 8.00781C10.9693 8.00781 11.7578 7.21926 11.7578 6.25C11.7578 5.28074 10.9693 4.49219 10 4.49219ZM10 6.83594C9.67641 6.83594 9.41406 6.57359 9.41406 6.25C9.41406 5.92641 9.67641 5.66406 10 5.66406C10.3236 5.66406 10.5859 5.92641 10.5859 6.25C10.5859 6.57359 10.3236 6.83594 10 6.83594Z" fill="white"/>
<path d="M17.8516 0H2.14844C0.963789 0 0 0.963789 0 2.14844V12.5H20V2.14844C20 0.963789 19.0362 0 17.8516 0ZM2.92969 4.88281H4.14062C4.46422 4.88281 4.72656 5.14516 4.72656 5.46875C4.72656 5.79234 4.46422 6.05469 4.14062 6.05469H2.92969C2.60609 6.05469 2.34375 5.79234 2.34375 5.46875C2.34375 5.14516 2.60609 4.88281 2.92969 4.88281ZM2.92969 7.22656H4.14062C4.46422 7.22656 4.72656 7.48891 4.72656 7.8125C4.72656 8.13609 4.46422 8.39844 4.14062 8.39844H2.92969C2.60609 8.39844 2.34375 8.13609 2.34375 7.8125C2.34375 7.48891 2.60609 7.22656 2.92969 7.22656ZM17.0703 7.61719H15.8594C15.5358 7.61719 15.2734 7.35484 15.2734 7.03125C15.2734 6.70766 15.5358 6.44531 15.8594 6.44531H17.0703C17.3939 6.44531 17.6562 6.70766 17.6562 7.03125C17.6562 7.35484 17.3939 7.61719 17.0703 7.61719ZM17.0703 5.27344H15.8594C15.5358 5.27344 15.2734 5.01109 15.2734 4.6875C15.2734 4.36391 15.5358 4.10156 15.8594 4.10156H17.0703C17.3939 4.10156 17.6562 4.36391 17.6562 4.6875C17.6562 5.01109 17.3939 5.27344 17.0703 5.27344ZM17.0703 2.92969H14.1489L12.443 4.63555C12.6469 4.94293 12.7946 5.29055 12.8707 5.66406H13.5156C13.8392 5.66406 14.1016 5.92641 14.1016 6.25C14.1016 6.57359 13.8392 6.83594 13.5156 6.83594H12.8707C12.7946 7.20941 12.6469 7.55703 12.4431 7.86441L12.9003 8.3216C13.1291 8.55043 13.1291 8.92141 12.9003 9.15023C12.6714 9.37906 12.3005 9.37906 12.0716 9.15023L11.6145 8.69305C11.3071 8.89684 10.9595 9.04461 10.586 9.1207V9.76562C10.586 10.0892 10.3236 10.3516 10 10.3516C9.67645 10.3516 9.4141 10.0892 9.4141 9.76562V9.12074C9.04062 9.04461 8.69301 8.89687 8.38562 8.69309L6.50813 10.5706C6.3982 10.6805 6.24918 10.7422 6.09375 10.7422H2.92969C2.60609 10.7422 2.34375 10.4798 2.34375 10.1562C2.34375 9.83266 2.60609 9.57031 2.92969 9.57031H5.85105L7.55691 7.86441C7.35313 7.55703 7.20535 7.20941 7.12926 6.83594H6.48438C6.16078 6.83594 5.89844 6.57359 5.89844 6.25C5.89844 5.92641 6.16078 5.66406 6.48438 5.66406H7.12926C7.20539 5.29059 7.35313 4.94297 7.55691 4.63559L7.09973 4.1784C6.8709 3.94957 6.8709 3.57859 7.09973 3.34977C7.32855 3.12094 7.69953 3.12094 7.92836 3.34977L8.38555 3.80695C8.69293 3.60316 9.04055 3.45539 9.41402 3.3793V2.73438C9.41402 2.41078 9.67637 2.14844 9.99996 2.14844C10.3236 2.14844 10.5859 2.41078 10.5859 2.73438V3.37926C10.9594 3.45539 11.307 3.60313 11.6144 3.80691L13.4918 1.92941C13.6018 1.81953 13.7508 1.75781 13.9062 1.75781H17.0703C17.3939 1.75781 17.6562 2.02016 17.6562 2.34375C17.6562 2.66734 17.3939 2.92969 17.0703 2.92969Z" fill="white"/>
</svg>
