<svg width="16" height="20" viewBox="0 0 16 20" fill="none" xmlns="http://www.w3.org/2000/svg">
<path d="M1.67969 5.87891H8.09902C8.09895 5.87238 8.09852 5.86594 8.09852 5.85938V0.585938C8.09852 0.579375 8.09895 0.57293 8.09902 0.566406H1.67969C0.753516 0.566406 0 1.31992 0 2.24609V4.19922C3.90625e-05 5.12539 0.753516 5.87891 1.67969 5.87891ZM4.68754 3.21289C4.68754 2.8893 4.94988 2.62695 5.27348 2.62695C5.59707 2.62695 5.85942 2.8893 5.85942 3.21289V3.23242C5.85942 3.55602 5.59707 3.81836 5.27348 3.81836C4.94988 3.81836 4.68754 3.55602 4.68754 3.23242V3.21289ZM2.34379 3.21289C2.34379 2.8893 2.60613 2.62695 2.92973 2.62695C3.25332 2.62695 3.51566 2.8893 3.51566 3.21289V3.23242C3.51566 3.55602 3.25332 3.81836 2.92973 3.81836C2.60613 3.81836 2.34379 3.55602 2.34379 3.23242V3.21289Z" fill="white"/>
<path d="M11.5751 10.5859C11.8987 10.5859 12.161 10.3236 12.161 10V8.75254C12.24 8.72352 12.3129 8.67816 12.3736 8.61746L13.4284 7.56266C13.5383 7.45277 13.6 7.30375 13.6 7.14836V6.5118H9.53754V7.14836C9.53754 7.30375 9.59926 7.45277 9.70918 7.56266L10.764 8.61746C10.8279 8.68133 10.9052 8.72836 10.9892 8.75703V10C10.9891 10.3236 11.2515 10.5859 11.5751 10.5859Z" fill="white"/>
<path d="M1.51715 7.04586V14.5922C1.72164 14.5527 1.93254 14.5313 2.14844 14.5313H5.03277V13.0079H13.2812C13.6048 13.0079 13.8672 12.7455 13.8672 12.4219C13.8672 12.0983 13.6048 11.836 13.2812 11.836H5.03277V7.05078C5.03277 7.05078 1.57098 7.04887 1.51715 7.04586Z" fill="white"/>
<path d="M12.8907 15.7031H2.14844C0.963789 15.7031 0 16.6669 0 17.8516V18.4766C0 18.8002 0.262344 19.0625 0.585938 19.0625H1.01637V19.4141C1.01637 19.7377 1.27871 20 1.6023 20C1.9259 20 2.18824 19.7377 2.18824 19.4141V19.0625H12.8509V19.4141C12.8509 19.7377 13.1132 20 13.4368 20C13.7604 20 14.0227 19.7377 14.0227 19.4141V19.0625H14.4532C14.7768 19.0625 15.0391 18.8002 15.0391 18.4766V17.8516C15.0391 16.6669 14.0754 15.7031 12.8907 15.7031Z" fill="white"/>
<path d="M13.8672 0.585938C13.8672 0.262344 13.6048 0 13.2813 0H9.85633C9.53274 0 9.27039 0.262344 9.27039 0.585938V5.33992H13.8672V0.585938Z" fill="white"/>
</svg>
