<svg width="20" height="18" viewBox="0 0 20 18" fill="none" xmlns="http://www.w3.org/2000/svg">
<path d="M8.24219 9.375H11.7578V10.5469H8.24219V9.375Z" fill="white"/>
<path d="M16.2257 10.5469H12.9297V11.1328C12.9297 11.4566 12.6675 11.7188 12.3438 11.7188H7.65625C7.33246 11.7188 7.07031 11.4566 7.07031 11.1328V10.5469H3.77426C3.01666 10.5469 2.34665 10.0639 2.10678 9.34525L0 3.02383V15.8203C0 16.7896 0.788574 17.5781 1.75781 17.5781H18.2422C19.2114 17.5781 20 16.7896 20 15.8203V3.02429L17.8931 9.34525C17.6534 10.0639 16.9833 10.5469 16.2257 10.5469Z" fill="white"/>
<path d="M12.3438 0H7.65625C6.68701 0 5.89844 0.788574 5.89844 1.75781V2.34375H1.00815L3.21808 8.97446C3.29819 9.21417 3.52188 9.375 3.77426 9.375H7.07031V8.78906C7.07031 8.46527 7.33246 8.20312 7.65625 8.20312H12.3438C12.6675 8.20312 12.9297 8.46527 12.9297 8.78906V9.375H16.2257C16.4781 9.375 16.7018 9.21417 16.7819 8.97446L18.992 2.34375H14.1016V1.75781C14.1016 0.788574 13.313 0 12.3438 0ZM7.07031 2.34375V1.75781C7.07031 1.43448 7.33292 1.17188 7.65625 1.17188H12.3438C12.6671 1.17188 12.9297 1.43448 12.9297 1.75781V2.34375H7.07031Z" fill="white"/>
</svg>
